<?xml version="1.0" encoding="UTF-8" standalone="no"?>
<!DOCTYPE svg PUBLIC "-//W3C//DTD SVG 1.1//EN" "http://www.w3.org/Graphics/SVG/1.1/DTD/svg11.dtd">
<svg width="100%" height="100%" viewBox="0 0 32 32" version="1.1" xmlns="http://www.w3.org/2000/svg" xmlns:xlink="http://www.w3.org/1999/xlink" xml:space="preserve" xmlns:serif="http://www.serif.com/" style="fill-rule:evenodd;clip-rule:evenodd;stroke-linejoin:round;stroke-miterlimit:2;">
    <rect id="Artboard1" x="0" y="0" width="32" height="32" style="fill:none;"/>
    <clipPath id="_clip1">
        <rect id="Artboard11" serif:id="Artboard1" x="0" y="0" width="32" height="32"/>
    </clipPath>
    <g clip-path="url(#_clip1)">
        <g transform="matrix(0.159131,0,0,0.159131,0.086873,2.56354)">
            <path d="M63.798,221.336C57.587,226.192 50.41,228.964 42.769,228.964C19.164,228.964 0,202.51 0,169.926C0,137.341 19.164,110.887 42.769,110.887C51.888,110.887 60.345,114.836 67.29,121.561C56.702,134.221 50,152.912 50,173.747C50,192.188 55.25,208.95 63.798,221.336Z"/>
        </g>
        <g transform="matrix(0.277862,0,0,0.383568,-10.6859,-18.6736)">
            <circle cx="96.04" cy="88.997" r="13.96"/>
        </g>
        <g transform="matrix(0.277862,0,0,0.383568,-20.2338,-19.2817)">
            <circle cx="96.04" cy="88.997" r="13.96"/>
        </g>
        <g transform="matrix(0.487528,0,0,0.672996,-30.8223,-29.6822)">
            <circle cx="96.04" cy="88.997" r="13.96"/>
        </g>
        <g transform="matrix(0.159131,0,0,0.159131,0.086873,2.56354)">
            <path d="M132.71,121.561C139.655,114.836 148.112,110.887 157.231,110.887C180.836,110.887 200,137.341 200,169.926C200,202.51 180.836,228.964 157.231,228.964C149.59,228.964 142.413,226.192 136.202,221.336C144.75,208.95 150,192.188 150,173.747C150,152.912 143.298,134.221 132.71,121.561Z"/>
        </g>
        <g transform="matrix(0.277862,0,0,0.383568,-1.13807,-19.2817)">
            <circle cx="96.04" cy="88.997" r="13.96"/>
        </g>
    </g>
</svg>
