<?xml version="1.0" encoding="UTF-8" standalone="no"?>
<svg xmlns="http://www.w3.org/2000/svg" viewBox="0 0 510 316">
  <path d="M162 241c-1.81-9.2-3.37-15.4-.79-26.8-2.97 7.04-6.73 13.9-8.76 21.3-2.37 10 10.5 20.8 15.5 27 1.24 1.71 2.61 2.01 4.54 2.58 10.9-2.12 22 4.52 15.6 15.6-4.74 6.71-25.2 6.67-34.6 2.5-10.7-4.74-36.4-38-40.4-62.9 10.6-20 26-37.5 33.8-59.3-17-10.9-25.8-30.6-24.6-50.6-19.2 2.75-13.4 2.16-26 3.09-57.4-.17-108-39.1-79.4-99.5 1.84-3.58 3.6-6.84 6.73-5.28 2.51 1.25 2.15 6.25.884 11.8-16.2 72.2 63.1 72.8 112 59.4 19.9-17.4 29.6-18.8 55.6-21.4 29.2-3.32 64.3 12.1 82.1 12.6 17.8.51 43.2-4.27 58.8-3.26 11.3.52 22.4 2.56 33.3 5.46 7.06-34.4 7.56-59.7 24.3-65.6 9.82 1.55 17.4 14.9 23 22.1 11.9-.594 23.5 2.82 33.1 5.65 19.5-2.77 35.9-13.7 53.2-22.3-19.5 16.8-19.5 39.8-17.9 59 .747 11.1-2.4 23.2-6.3 34.7-7.28 18.6-21.4 38.2-37.7 37.2-6.17-.195-9.76-3.69-14.3-7.42-.89 7.56-4.38 14.3-7.76 21-7.78 14.8-28.1 21.4-47 37.2-18.8 15.8 6.03 72.4 12.1 82.6 6.03 10.3 22.9 14.1 16.3 23.4-3.48 4.36-7.61 5.27-12.7 5.94-19.4-.547-27.9-.5-37.7-16.7-7.26.46-16.9-.197-18.9-.294-9.97-.39-8.37-9.87-10.1-14.9-2.81-17 3.71-34.1 3.51-51.1-.073-6.04-8.61-27.4-11.7-35-32.3 6.05-66.7.847-95.5-3.65-4.3 17.8-17.1 42.6-6.51 60.6 12.8 18.6 21.8 23.8 35.7 25 13.9 1.12 17.1 16.9 13.7 22.5-2.98 3.88-8.23 4.59-12.7 5.53-13.5 1.86-20.6-1.02-28.5-4.63-10.4-5.79-21.1-17.8-29.1-26.6-6.99-7.83-17.4-19.1-25-26.2z"/>
</svg>
