<svg xmlns="http://www.w3.org/2000/svg" width="128" height="128" viewBox="0 0 128 128"><path d="M93 115c-5.89-.166-8 .935-11-4 0 0-1.965-1.024-3-1s-1.484.09-3.3 0c-3.036-.118-2.565-3.475-3.1-5-.854-5.175 1.463-9.825 1.4-15-.022-1.838-.072-12.675-1-15-.25-6.25-6.693-13.188-12-13-5.317.188-8.814 1.688-12 7s-3.214 24.508 0 30c.5 2.75 1.85 5.017 3 6.5 4.242.343 5.025 3.79 4 5.5-.91 1.184-2.645 1.713-4 2 0 0-5.982.21-7-1s-9.758-.198-11-1-.98-5.255-1-7-2-11-2-11-1.236-6.98-2-9-4.582-10.405-3-17c-5.18-3.307-7.5-8.25-7-20 0 0-1.75-3.545-4.5-3.5-3.942.064-5.51 2.84-6.5 6-1.96 6.253 1.567 13.428 2.66 20.205C11.913 77.455 9 87 6.5 86.5S7.16 75.067 5 68C3.914 64.446.75 59.506.5 52 .25 44.5 4.14 34 16 34c2.048 0 6.97 1.902 9 1 3.32-1.474 3.112-1.544 7-5 5.79-5.148 13.5-10.25 27-10 13.49.25 21.637 7.355 24.433 11.677C84.24 32.925 86.45 37.237 87 40c1.996-4.755 2.906-14.213 8-16 2.988.472 4.295 4.823 6 7 3.48-.14 7.715 1.022 11 2 5.948-.844 10.747-4.4 16-7-5.322 4.347-6.608 11.46-6 18 .227 3.394.185 7.525-1 11-2.22 5.668-7.03 11.306-12 11-1.88-.06-3.603-.863-5-2-.27 2.302-1.457 4.647-3 6-3.284 2.88-6.22 5.75-10 9-5.735 4.82-.835 24.863 1 28 1.836 3.136 6.418 1.48 5 6-.614 1.956-4 2-4 2zm-49-11l-1.5-4-2.5-3s.807 4.942 1 6 3 1 3 1z"/></svg>
