<?xml version="1.0" encoding="UTF-8" standalone="no"?>
<!-- Created with Inkscape (http://www.inkscape.org/) -->

<svg
   width="128"
   height="128"
   viewBox="0 0 128 128.00001"
   version="1.1"
   id="svg1"
   inkscape:version="1.3 (0e150ed6c4, 2023-07-21)"
   sodipodi:docname="favicons.svg"
   xml:space="preserve"
   inkscape:export-filename="png\tiddlywiki.com.png"
   inkscape:export-xdpi="96"
   inkscape:export-ydpi="96"
   xmlns:inkscape="http://www.inkscape.org/namespaces/inkscape"
   xmlns:sodipodi="http://sodipodi.sourceforge.net/DTD/sodipodi-0.dtd"
   xmlns:xlink="http://www.w3.org/1999/xlink"
   xmlns="http://www.w3.org/2000/svg"
   xmlns:svg="http://www.w3.org/2000/svg"><sodipodi:namedview
     id="namedview1"
     pagecolor="#ffffff"
     bordercolor="#666666"
     borderopacity="1.0"
     inkscape:showpageshadow="2"
     inkscape:pageopacity="0.0"
     inkscape:pagecheckerboard="true"
     inkscape:deskcolor="#d1d1d1"
     inkscape:document-units="px"
     inkscape:zoom="7.1015625"
     inkscape:cx="64.140814"
     inkscape:cy="64.140814"
     inkscape:window-width="1920"
     inkscape:window-height="1147"
     inkscape:window-x="-8"
     inkscape:window-y="-8"
     inkscape:window-maximized="1"
     inkscape:current-layer="g11" /><defs
     id="defs1"><linearGradient
       id="swatch12"
       inkscape:swatch="solid"
       inkscape:label="server"><stop
         style="stop-color:#da5577;stop-opacity:1;"
         offset="0"
         id="stop12" /></linearGradient><linearGradient
       id="swatch11"><stop
         style="stop-color:#000000;stop-opacity:1;"
         offset="0"
         id="stop11" /></linearGradient><linearGradient
       id="swatch9"
       inkscape:swatch="solid"
       inkscape:label="white"><stop
         style="stop-color:#ffffff;stop-opacity:1;"
         offset="0"
         id="stop9" /></linearGradient><linearGradient
       id="swatch1"><stop
         style="stop-color:#000000;stop-opacity:1;"
         offset="0"
         id="stop1" /></linearGradient><linearGradient
       id="swatch8"
       inkscape:swatch="solid"
       inkscape:label="org"><stop
         style="stop-color:#56bdbf;stop-opacity:1;"
         offset="0"
         id="stop8" /></linearGradient><linearGradient
       id="swatch7"
       inkscape:swatch="solid"
       inkscape:label="dev"><stop
         style="stop-color:#f5a622;stop-opacity:1;"
         offset="0"
         id="stop7" /></linearGradient><linearGradient
       id="swatch6"
       inkscape:swatch="solid"
       inkscape:label="prerelease"><stop
         style="stop-color:#000000;stop-opacity:1;"
         offset="0"
         id="stop6" /></linearGradient><linearGradient
       id="swatch4"
       inkscape:swatch="solid"
       inkscape:label="static"><stop
         style="stop-color:#75da4e;stop-opacity:1;"
         offset="0"
         id="stop4" /></linearGradient><linearGradient
       id="swatch3"
       inkscape:swatch="solid"
       inkscape:label="main"><stop
         style="stop-color:#5778d8;stop-opacity:1;"
         offset="0"
         id="stop3" /></linearGradient><linearGradient
       inkscape:collect="always"
       xlink:href="#swatch3"
       id="linearGradient3"
       x1="0"
       y1="64"
       x2="128"
       y2="64"
       gradientUnits="userSpaceOnUse" /><linearGradient
       inkscape:collect="always"
       xlink:href="#swatch4"
       id="linearGradient4"
       x1="0"
       y1="64"
       x2="128"
       y2="64"
       gradientUnits="userSpaceOnUse" /><clipPath
       clipPathUnits="userSpaceOnUse"
       id="clipPath5"><rect
         style="fill:none;fill-opacity:1;stroke-width:8;stroke-linecap:round;stroke-linejoin:round"
         id="rect5"
         width="128"
         height="128"
         x="0"
         y="0"
         inkscape:label="clip" /></clipPath><linearGradient
       inkscape:collect="always"
       xlink:href="#swatch6"
       id="linearGradient6"
       x1="0"
       y1="64"
       x2="128"
       y2="64"
       gradientUnits="userSpaceOnUse" /><linearGradient
       inkscape:collect="always"
       xlink:href="#swatch7"
       id="linearGradient7"
       x1="0"
       y1="64"
       x2="128"
       y2="64"
       gradientUnits="userSpaceOnUse" /><linearGradient
       inkscape:collect="always"
       xlink:href="#swatch8"
       id="linearGradient8"
       x1="0"
       y1="64"
       x2="128"
       y2="64"
       gradientUnits="userSpaceOnUse" /><linearGradient
       inkscape:collect="always"
       xlink:href="#swatch3"
       id="linearGradient1"
       x1="0"
       y1="64"
       x2="128"
       y2="64"
       gradientUnits="userSpaceOnUse" /><linearGradient
       inkscape:collect="always"
       xlink:href="#swatch9"
       id="linearGradient10"
       gradientUnits="userSpaceOnUse"
       x1="0"
       y1="64"
       x2="128"
       y2="64"
       gradientTransform="matrix(0.9375,0,0,0.9375,4,4)" /><linearGradient
       inkscape:collect="always"
       xlink:href="#swatch6"
       id="linearGradient11"
       x1="33"
       y1="64.499634"
       x2="95.999908"
       y2="64.499634"
       gradientUnits="userSpaceOnUse" /><linearGradient
       inkscape:collect="always"
       xlink:href="#swatch12"
       id="linearGradient12"
       x1="0"
       y1="64"
       x2="128"
       y2="64"
       gradientUnits="userSpaceOnUse" /></defs><g
     inkscape:groupmode="layer"
     id="layer3"
     inkscape:label="tiddlywiki.com"
     inkscape:highlight-color="#5778d8"><circle
       style="fill:url(#linearGradient3);stroke-width:7.99998;stroke-linecap:round;stroke-linejoin:round"
       id="path3"
       cx="64"
       cy="64"
       r="64"
       inkscape:label="circle" /><path
       d="m 43.041717,108.67854 0.751889,0.22182 c 0.944816,-0.42273 2.84402,0.23061 3.851461,0.55003 -1.855114,-2.05655 -4.649979,-5.07657 -6.663583,-6.98047 -0.660927,-2.30497 -0.37892,-4.624354 -0.236721,-6.977384 l 0.02852,-0.194662 c -0.793713,1.883661 -1.800961,3.714696 -2.342334,5.697446 -0.633527,2.6749 2.815658,5.56097 4.153111,7.21503 z m 57.494073,11.31289 c -5.176865,-0.14634 -7.45389,-0.13375 -10.090375,-4.46924 l -2.054834,0.0589 c -2.391765,-0.10621 -1.395001,-0.0581 -2.990656,-0.13751 -2.667869,-0.10382 -2.240498,-2.63873 -2.709843,-3.97803 -0.750795,-4.5463 0.993529,-9.1161 0.938501,-13.663293 -0.01948,-1.614147 -2.303594,-7.327643 -3.119609,-9.370339 -2.558104,0.481634 -5.130085,0.573461 -7.725288,0.702779 -5.981958,-0.01466 -11.923347,-0.747185 -17.821779,-1.677423 -1.149456,4.748289 -4.566087,11.394302 -1.741972,16.220026 3.42795,4.99165 5.83352,6.37456 9.56221,6.67553 3.72865,0.30073 4.570606,4.51045 3.66851,6.01401 -0.798461,1.03913 -2.201806,1.22775 -3.394119,1.4795 l -2.384948,0.11209 c -1.876755,-0.0631 -3.554228,-0.56985 -5.226509,-1.35134 -2.792698,-1.55893 -5.677038,-4.7999 -7.820048,-7.12669 0.498909,0.92916 0.796495,2.74306 0.343977,3.58717 -1.267037,1.79491 -6.746985,1.78394 -9.256605,0.66857 -2.850888,-1.2668 -9.739741,-10.16165 -10.804821,-16.823492 2.833503,-5.358459 6.961359,-10.026002 9.049766,-15.860562 -4.552172,-2.904652 -6.990252,-7.633183 -6.673751,-12.989413 l 0.114239,-0.620021 c -4.479132,0.838514 -2.156357,0.52654 -6.97473,0.891035 C 8.0781524,68.286706 -5.4165029,57.882298 2.1821351,41.712001 c 0.4941401,-0.957532 0.9642068,-1.828092 1.8018738,-1.412334 0.6723209,0.333607 0.5757456,1.671844 0.2375704,3.155882 -4.34348771,19.321322 16.8849057,19.469204 29.9343757,15.893894 1.29515,-0.354917 3.871013,-2.745269 5.655363,-3.537694 2.916681,-1.29519 6.08244,-1.820682 9.224204,-2.199327 7.814184,-0.890406 17.205875,3.226084 21.977769,3.360498 4.77195,0.134409 11.560224,-1.14261 15.727266,-0.873733 3.023544,0.138339 5.992475,0.684094 8.909715,1.461516 1.888294,-9.200899 2.021793,-15.982204 6.498248,-17.552121 2.62723,0.414952 4.65169,3.995151 6.15018,5.908061 l 0.006,-0.0011 c 3.0518,-0.120395 5.95595,0.653873 8.84349,1.513196 5.22772,-0.741874 9.61454,-3.677579 14.23119,-5.961293 -0.0144,0.07197 -0.0899,0.09631 -0.13483,0.144733 -4.54334,3.67438 -5.17796,9.887706 -4.64341,15.633427 0.19879,2.981492 -0.6437,6.218521 -1.68521,9.271173 -1.94903,4.973519 -5.71304,10.215962 -10.08168,9.947083 -1.65151,-0.05224 -2.61091,-0.987376 -3.83837,-1.985753 -0.23812,2.022227 -1.17396,3.826663 -2.07611,5.615136 -2.08332,3.965414 -7.52746,5.712859 -12.568439,9.947104 -5.040634,4.23431 1.612996,19.356811 3.226255,22.112181 1.612994,2.75564 6.115934,3.76373 4.368644,6.25076 -0.53454,0.82135 -1.35188,1.11511 -2.2254,1.43375 z"
       fill="#000000"
       id="path2"
       style="opacity:1;fill:#ffffff;stroke-width:1.33333"
       inkscape:label="motovun"
       clip-path="url(#clipPath5)" /></g><g
     inkscape:groupmode="layer"
     id="g4"
     inkscape:label="tiddlywiki.com.static"
     inkscape:highlight-color="#75da4e"
     style="display:none"><circle
       style="fill:url(#linearGradient4);stroke-width:7.99998;stroke-linecap:round;stroke-linejoin:round"
       id="circle3"
       cx="64"
       cy="64"
       r="64"
       inkscape:label="circle" /><path
       d="m 43.041717,108.67854 0.751889,0.22182 c 0.944816,-0.42273 2.84402,0.23061 3.851461,0.55003 -1.855114,-2.05655 -4.649979,-5.07657 -6.663583,-6.98047 -0.660927,-2.30497 -0.37892,-4.624354 -0.236721,-6.977384 l 0.02852,-0.194662 c -0.793713,1.883661 -1.800961,3.714696 -2.342334,5.697446 -0.633527,2.6749 2.815658,5.56097 4.153111,7.21503 z m 57.494073,11.31289 c -5.176865,-0.14634 -7.45389,-0.13375 -10.090375,-4.46924 l -2.054834,0.0589 c -2.391765,-0.10621 -1.395001,-0.0581 -2.990656,-0.13751 -2.667869,-0.10382 -2.240498,-2.63873 -2.709843,-3.97803 -0.750795,-4.5463 0.993529,-9.1161 0.938501,-13.663293 -0.01948,-1.614147 -2.303594,-7.327643 -3.119609,-9.370339 -2.558104,0.481634 -5.130085,0.573461 -7.725288,0.702779 -5.981958,-0.01466 -11.923347,-0.747185 -17.821779,-1.677423 -1.149456,4.748289 -4.566087,11.394302 -1.741972,16.220026 3.42795,4.99165 5.83352,6.37456 9.56221,6.67553 3.72865,0.30073 4.570606,4.51045 3.66851,6.01401 -0.798461,1.03913 -2.201806,1.22775 -3.394119,1.4795 l -2.384948,0.11209 c -1.876755,-0.0631 -3.554228,-0.56985 -5.226509,-1.35134 -2.792698,-1.55893 -5.677038,-4.7999 -7.820048,-7.12669 0.498909,0.92916 0.796495,2.74306 0.343977,3.58717 -1.267037,1.79491 -6.746985,1.78394 -9.256605,0.66857 -2.850888,-1.2668 -9.739741,-10.16165 -10.804821,-16.823492 2.833503,-5.358459 6.961359,-10.026002 9.049766,-15.860562 -4.552172,-2.904652 -6.990252,-7.633183 -6.673751,-12.989413 l 0.114239,-0.620021 c -4.479132,0.838514 -2.156357,0.52654 -6.97473,0.891035 C 8.0781524,68.286706 -5.4165029,57.882298 2.1821351,41.712001 c 0.4941401,-0.957532 0.9642068,-1.828092 1.8018738,-1.412334 0.6723209,0.333607 0.5757456,1.671844 0.2375704,3.155882 -4.34348771,19.321322 16.8849057,19.469204 29.9343757,15.893894 1.29515,-0.354917 3.871013,-2.745269 5.655363,-3.537694 2.916681,-1.29519 6.08244,-1.820682 9.224204,-2.199327 7.814184,-0.890406 17.205875,3.226084 21.977769,3.360498 4.77195,0.134409 11.560224,-1.14261 15.727266,-0.873733 3.023544,0.138339 5.992475,0.684094 8.909715,1.461516 1.888294,-9.200899 2.021793,-15.982204 6.498248,-17.552121 2.62723,0.414952 4.65169,3.995151 6.15018,5.908061 l 0.006,-0.0011 c 3.0518,-0.120395 5.95595,0.653873 8.84349,1.513196 5.22772,-0.741874 9.61454,-3.677579 14.23119,-5.961293 -0.0144,0.07197 -0.0899,0.09631 -0.13483,0.144733 -4.54334,3.67438 -5.17796,9.887706 -4.64341,15.633427 0.19879,2.981492 -0.6437,6.218521 -1.68521,9.271173 -1.94903,4.973519 -5.71304,10.215962 -10.08168,9.947083 -1.65151,-0.05224 -2.61091,-0.987376 -3.83837,-1.985753 -0.23812,2.022227 -1.17396,3.826663 -2.07611,5.615136 -2.08332,3.965414 -7.52746,5.712859 -12.568439,9.947104 -5.040634,4.23431 1.612996,19.356811 3.226255,22.112181 1.612994,2.75564 6.115934,3.76373 4.368644,6.25076 -0.53454,0.82135 -1.35188,1.11511 -2.2254,1.43375 z"
       fill="#000000"
       id="path5"
       style="opacity:1;fill:#ffffff;stroke-width:1.33333"
       inkscape:label="motovun"
       clip-path="url(#clipPath5)" /></g><g
     inkscape:groupmode="layer"
     id="g6"
     inkscape:label="tiddlywiki.com.prerelease"
     inkscape:highlight-color="#000000"
     style="display:none"><circle
       style="fill:url(#linearGradient6);stroke-width:7.99998;stroke-linecap:round;stroke-linejoin:round"
       id="circle5"
       cx="64"
       cy="64"
       r="64"
       inkscape:label="circle" /><path
       d="m 43.041717,108.67854 0.751889,0.22182 c 0.944816,-0.42273 2.84402,0.23061 3.851461,0.55003 -1.855114,-2.05655 -4.649979,-5.07657 -6.663583,-6.98047 -0.660927,-2.30497 -0.37892,-4.624354 -0.236721,-6.977384 l 0.02852,-0.194662 c -0.793713,1.883661 -1.800961,3.714696 -2.342334,5.697446 -0.633527,2.6749 2.815658,5.56097 4.153111,7.21503 z m 57.494073,11.31289 c -5.176865,-0.14634 -7.45389,-0.13375 -10.090375,-4.46924 l -2.054834,0.0589 c -2.391765,-0.10621 -1.395001,-0.0581 -2.990656,-0.13751 -2.667869,-0.10382 -2.240498,-2.63873 -2.709843,-3.97803 -0.750795,-4.5463 0.993529,-9.1161 0.938501,-13.663293 -0.01948,-1.614147 -2.303594,-7.327643 -3.119609,-9.370339 -2.558104,0.481634 -5.130085,0.573461 -7.725288,0.702779 -5.981958,-0.01466 -11.923347,-0.747185 -17.821779,-1.677423 -1.149456,4.748289 -4.566087,11.394302 -1.741972,16.220026 3.42795,4.99165 5.83352,6.37456 9.56221,6.67553 3.72865,0.30073 4.570606,4.51045 3.66851,6.01401 -0.798461,1.03913 -2.201806,1.22775 -3.394119,1.4795 l -2.384948,0.11209 c -1.876755,-0.0631 -3.554228,-0.56985 -5.226509,-1.35134 -2.792698,-1.55893 -5.677038,-4.7999 -7.820048,-7.12669 0.498909,0.92916 0.796495,2.74306 0.343977,3.58717 -1.267037,1.79491 -6.746985,1.78394 -9.256605,0.66857 -2.850888,-1.2668 -9.739741,-10.16165 -10.804821,-16.823492 2.833503,-5.358459 6.961359,-10.026002 9.049766,-15.860562 -4.552172,-2.904652 -6.990252,-7.633183 -6.673751,-12.989413 l 0.114239,-0.620021 c -4.479132,0.838514 -2.156357,0.52654 -6.97473,0.891035 C 8.0781524,68.286706 -5.4165029,57.882298 2.1821351,41.712001 c 0.4941401,-0.957532 0.9642068,-1.828092 1.8018738,-1.412334 0.6723209,0.333607 0.5757456,1.671844 0.2375704,3.155882 -4.34348771,19.321322 16.8849057,19.469204 29.9343757,15.893894 1.29515,-0.354917 3.871013,-2.745269 5.655363,-3.537694 2.916681,-1.29519 6.08244,-1.820682 9.224204,-2.199327 7.814184,-0.890406 17.205875,3.226084 21.977769,3.360498 4.77195,0.134409 11.560224,-1.14261 15.727266,-0.873733 3.023544,0.138339 5.992475,0.684094 8.909715,1.461516 1.888294,-9.200899 2.021793,-15.982204 6.498248,-17.552121 2.62723,0.414952 4.65169,3.995151 6.15018,5.908061 l 0.006,-0.0011 c 3.0518,-0.120395 5.95595,0.653873 8.84349,1.513196 5.22772,-0.741874 9.61454,-3.677579 14.23119,-5.961293 -0.0144,0.07197 -0.0899,0.09631 -0.13483,0.144733 -4.54334,3.67438 -5.17796,9.887706 -4.64341,15.633427 0.19879,2.981492 -0.6437,6.218521 -1.68521,9.271173 -1.94903,4.973519 -5.71304,10.215962 -10.08168,9.947083 -1.65151,-0.05224 -2.61091,-0.987376 -3.83837,-1.985753 -0.23812,2.022227 -1.17396,3.826663 -2.07611,5.615136 -2.08332,3.965414 -7.52746,5.712859 -12.568439,9.947104 -5.040634,4.23431 1.612996,19.356811 3.226255,22.112181 1.612994,2.75564 6.115934,3.76373 4.368644,6.25076 -0.53454,0.82135 -1.35188,1.11511 -2.2254,1.43375 z"
       fill="#000000"
       id="path6"
       style="opacity:1;fill:#ffffff;stroke-width:1.33333"
       inkscape:label="motovun"
       clip-path="url(#clipPath5)" /></g><g
     inkscape:groupmode="layer"
     id="g7"
     inkscape:label="tiddlywiki.com.dev"
     inkscape:highlight-color="#f5a622"
     style="display:none"><circle
       style="fill:url(#linearGradient7);stroke-width:7.99998;stroke-linecap:round;stroke-linejoin:round"
       id="circle6"
       cx="64"
       cy="64"
       r="64"
       inkscape:label="circle" /><path
       d="m 43.041717,108.67854 0.751889,0.22182 c 0.944816,-0.42273 2.84402,0.23061 3.851461,0.55003 -1.855114,-2.05655 -4.649979,-5.07657 -6.663583,-6.98047 -0.660927,-2.30497 -0.37892,-4.624354 -0.236721,-6.977384 l 0.02852,-0.194662 c -0.793713,1.883661 -1.800961,3.714696 -2.342334,5.697446 -0.633527,2.6749 2.815658,5.56097 4.153111,7.21503 z m 57.494073,11.31289 c -5.176865,-0.14634 -7.45389,-0.13375 -10.090375,-4.46924 l -2.054834,0.0589 c -2.391765,-0.10621 -1.395001,-0.0581 -2.990656,-0.13751 -2.667869,-0.10382 -2.240498,-2.63873 -2.709843,-3.97803 -0.750795,-4.5463 0.993529,-9.1161 0.938501,-13.663293 -0.01948,-1.614147 -2.303594,-7.327643 -3.119609,-9.370339 -2.558104,0.481634 -5.130085,0.573461 -7.725288,0.702779 -5.981958,-0.01466 -11.923347,-0.747185 -17.821779,-1.677423 -1.149456,4.748289 -4.566087,11.394302 -1.741972,16.220026 3.42795,4.99165 5.83352,6.37456 9.56221,6.67553 3.72865,0.30073 4.570606,4.51045 3.66851,6.01401 -0.798461,1.03913 -2.201806,1.22775 -3.394119,1.4795 l -2.384948,0.11209 c -1.876755,-0.0631 -3.554228,-0.56985 -5.226509,-1.35134 -2.792698,-1.55893 -5.677038,-4.7999 -7.820048,-7.12669 0.498909,0.92916 0.796495,2.74306 0.343977,3.58717 -1.267037,1.79491 -6.746985,1.78394 -9.256605,0.66857 -2.850888,-1.2668 -9.739741,-10.16165 -10.804821,-16.823492 2.833503,-5.358459 6.961359,-10.026002 9.049766,-15.860562 -4.552172,-2.904652 -6.990252,-7.633183 -6.673751,-12.989413 l 0.114239,-0.620021 c -4.479132,0.838514 -2.156357,0.52654 -6.97473,0.891035 C 8.0781524,68.286706 -5.4165029,57.882298 2.1821351,41.712001 c 0.4941401,-0.957532 0.9642068,-1.828092 1.8018738,-1.412334 0.6723209,0.333607 0.5757456,1.671844 0.2375704,3.155882 -4.34348771,19.321322 16.8849057,19.469204 29.9343757,15.893894 1.29515,-0.354917 3.871013,-2.745269 5.655363,-3.537694 2.916681,-1.29519 6.08244,-1.820682 9.224204,-2.199327 7.814184,-0.890406 17.205875,3.226084 21.977769,3.360498 4.77195,0.134409 11.560224,-1.14261 15.727266,-0.873733 3.023544,0.138339 5.992475,0.684094 8.909715,1.461516 1.888294,-9.200899 2.021793,-15.982204 6.498248,-17.552121 2.62723,0.414952 4.65169,3.995151 6.15018,5.908061 l 0.006,-0.0011 c 3.0518,-0.120395 5.95595,0.653873 8.84349,1.513196 5.22772,-0.741874 9.61454,-3.677579 14.23119,-5.961293 -0.0144,0.07197 -0.0899,0.09631 -0.13483,0.144733 -4.54334,3.67438 -5.17796,9.887706 -4.64341,15.633427 0.19879,2.981492 -0.6437,6.218521 -1.68521,9.271173 -1.94903,4.973519 -5.71304,10.215962 -10.08168,9.947083 -1.65151,-0.05224 -2.61091,-0.987376 -3.83837,-1.985753 -0.23812,2.022227 -1.17396,3.826663 -2.07611,5.615136 -2.08332,3.965414 -7.52746,5.712859 -12.568439,9.947104 -5.040634,4.23431 1.612996,19.356811 3.226255,22.112181 1.612994,2.75564 6.115934,3.76373 4.368644,6.25076 -0.53454,0.82135 -1.35188,1.11511 -2.2254,1.43375 z"
       fill="#000000"
       id="path7"
       style="opacity:1;fill:#ffffff;stroke-width:1.33333"
       inkscape:label="motovun"
       clip-path="url(#clipPath5)" /></g><g
     inkscape:groupmode="layer"
     id="g11"
     inkscape:label="tiddlywiki.com.server"
     inkscape:highlight-color="#da5577"
     style="display:none"><circle
       style="fill:url(#linearGradient12);stroke-width:7.99998;stroke-linecap:round;stroke-linejoin:round"
       id="circle11"
       cx="64"
       cy="64"
       r="64"
       inkscape:label="circle" /><path
       d="m 43.041717,108.67854 0.751889,0.22182 c 0.944816,-0.42273 2.84402,0.23061 3.851461,0.55003 -1.855114,-2.05655 -4.649979,-5.07657 -6.663583,-6.98047 -0.660927,-2.30497 -0.37892,-4.624354 -0.236721,-6.977384 l 0.02852,-0.194662 c -0.793713,1.883661 -1.800961,3.714696 -2.342334,5.697446 -0.633527,2.6749 2.815658,5.56097 4.153111,7.21503 z m 57.494073,11.31289 c -5.176865,-0.14634 -7.45389,-0.13375 -10.090375,-4.46924 l -2.054834,0.0589 c -2.391765,-0.10621 -1.395001,-0.0581 -2.990656,-0.13751 -2.667869,-0.10382 -2.240498,-2.63873 -2.709843,-3.97803 -0.750795,-4.5463 0.993529,-9.1161 0.938501,-13.663293 -0.01948,-1.614147 -2.303594,-7.327643 -3.119609,-9.370339 -2.558104,0.481634 -5.130085,0.573461 -7.725288,0.702779 -5.981958,-0.01466 -11.923347,-0.747185 -17.821779,-1.677423 -1.149456,4.748289 -4.566087,11.394302 -1.741972,16.220026 3.42795,4.99165 5.83352,6.37456 9.56221,6.67553 3.72865,0.30073 4.570606,4.51045 3.66851,6.01401 -0.798461,1.03913 -2.201806,1.22775 -3.394119,1.4795 l -2.384948,0.11209 c -1.876755,-0.0631 -3.554228,-0.56985 -5.226509,-1.35134 -2.792698,-1.55893 -5.677038,-4.7999 -7.820048,-7.12669 0.498909,0.92916 0.796495,2.74306 0.343977,3.58717 -1.267037,1.79491 -6.746985,1.78394 -9.256605,0.66857 -2.850888,-1.2668 -9.739741,-10.16165 -10.804821,-16.823492 2.833503,-5.358459 6.961359,-10.026002 9.049766,-15.860562 -4.552172,-2.904652 -6.990252,-7.633183 -6.673751,-12.989413 l 0.114239,-0.620021 c -4.479132,0.838514 -2.156357,0.52654 -6.97473,0.891035 C 8.0781524,68.286706 -5.4165029,57.882298 2.1821351,41.712001 c 0.4941401,-0.957532 0.9642068,-1.828092 1.8018738,-1.412334 0.6723209,0.333607 0.5757456,1.671844 0.2375704,3.155882 -4.34348771,19.321322 16.8849057,19.469204 29.9343757,15.893894 1.29515,-0.354917 3.871013,-2.745269 5.655363,-3.537694 2.916681,-1.29519 6.08244,-1.820682 9.224204,-2.199327 7.814184,-0.890406 17.205875,3.226084 21.977769,3.360498 4.77195,0.134409 11.560224,-1.14261 15.727266,-0.873733 3.023544,0.138339 5.992475,0.684094 8.909715,1.461516 1.888294,-9.200899 2.021793,-15.982204 6.498248,-17.552121 2.62723,0.414952 4.65169,3.995151 6.15018,5.908061 l 0.006,-0.0011 c 3.0518,-0.120395 5.95595,0.653873 8.84349,1.513196 5.22772,-0.741874 9.61454,-3.677579 14.23119,-5.961293 -0.0144,0.07197 -0.0899,0.09631 -0.13483,0.144733 -4.54334,3.67438 -5.17796,9.887706 -4.64341,15.633427 0.19879,2.981492 -0.6437,6.218521 -1.68521,9.271173 -1.94903,4.973519 -5.71304,10.215962 -10.08168,9.947083 -1.65151,-0.05224 -2.61091,-0.987376 -3.83837,-1.985753 -0.23812,2.022227 -1.17396,3.826663 -2.07611,5.615136 -2.08332,3.965414 -7.52746,5.712859 -12.568439,9.947104 -5.040634,4.23431 1.612996,19.356811 3.226255,22.112181 1.612994,2.75564 6.115934,3.76373 4.368644,6.25076 -0.53454,0.82135 -1.35188,1.11511 -2.2254,1.43375 z"
       fill="#000000"
       id="path11"
       style="opacity:1;fill:#ffffff;stroke-width:1.33333"
       inkscape:label="motovun"
       clip-path="url(#clipPath5)" /></g><g
     inkscape:groupmode="layer"
     id="g8"
     inkscape:label="tiddlywiki.org"
     inkscape:highlight-color="#56bdbf"
     style="display:none"><circle
       style="fill:url(#linearGradient8);stroke-width:7.99998;stroke-linecap:round;stroke-linejoin:round"
       id="circle7"
       cx="64"
       cy="64"
       r="64"
       inkscape:label="circle" /><path
       d="m 43.041717,108.67854 0.751889,0.22182 c 0.944816,-0.42273 2.84402,0.23061 3.851461,0.55003 -1.855114,-2.05655 -4.649979,-5.07657 -6.663583,-6.98047 -0.660927,-2.30497 -0.37892,-4.624354 -0.236721,-6.977384 l 0.02852,-0.194662 c -0.793713,1.883661 -1.800961,3.714696 -2.342334,5.697446 -0.633527,2.6749 2.815658,5.56097 4.153111,7.21503 z m 57.494073,11.31289 c -5.176865,-0.14634 -7.45389,-0.13375 -10.090375,-4.46924 l -2.054834,0.0589 c -2.391765,-0.10621 -1.395001,-0.0581 -2.990656,-0.13751 -2.667869,-0.10382 -2.240498,-2.63873 -2.709843,-3.97803 -0.750795,-4.5463 0.993529,-9.1161 0.938501,-13.663293 -0.01948,-1.614147 -2.303594,-7.327643 -3.119609,-9.370339 -2.558104,0.481634 -5.130085,0.573461 -7.725288,0.702779 -5.981958,-0.01466 -11.923347,-0.747185 -17.821779,-1.677423 -1.149456,4.748289 -4.566087,11.394302 -1.741972,16.220026 3.42795,4.99165 5.83352,6.37456 9.56221,6.67553 3.72865,0.30073 4.570606,4.51045 3.66851,6.01401 -0.798461,1.03913 -2.201806,1.22775 -3.394119,1.4795 l -2.384948,0.11209 c -1.876755,-0.0631 -3.554228,-0.56985 -5.226509,-1.35134 -2.792698,-1.55893 -5.677038,-4.7999 -7.820048,-7.12669 0.498909,0.92916 0.796495,2.74306 0.343977,3.58717 -1.267037,1.79491 -6.746985,1.78394 -9.256605,0.66857 -2.850888,-1.2668 -9.739741,-10.16165 -10.804821,-16.823492 2.833503,-5.358459 6.961359,-10.026002 9.049766,-15.860562 -4.552172,-2.904652 -6.990252,-7.633183 -6.673751,-12.989413 l 0.114239,-0.620021 c -4.479132,0.838514 -2.156357,0.52654 -6.97473,0.891035 C 8.0781524,68.286706 -5.4165029,57.882298 2.1821351,41.712001 c 0.4941401,-0.957532 0.9642068,-1.828092 1.8018738,-1.412334 0.6723209,0.333607 0.5757456,1.671844 0.2375704,3.155882 -4.34348771,19.321322 16.8849057,19.469204 29.9343757,15.893894 1.29515,-0.354917 3.871013,-2.745269 5.655363,-3.537694 2.916681,-1.29519 6.08244,-1.820682 9.224204,-2.199327 7.814184,-0.890406 17.205875,3.226084 21.977769,3.360498 4.77195,0.134409 11.560224,-1.14261 15.727266,-0.873733 3.023544,0.138339 5.992475,0.684094 8.909715,1.461516 1.888294,-9.200899 2.021793,-15.982204 6.498248,-17.552121 2.62723,0.414952 4.65169,3.995151 6.15018,5.908061 l 0.006,-0.0011 c 3.0518,-0.120395 5.95595,0.653873 8.84349,1.513196 5.22772,-0.741874 9.61454,-3.677579 14.23119,-5.961293 -0.0144,0.07197 -0.0899,0.09631 -0.13483,0.144733 -4.54334,3.67438 -5.17796,9.887706 -4.64341,15.633427 0.19879,2.981492 -0.6437,6.218521 -1.68521,9.271173 -1.94903,4.973519 -5.71304,10.215962 -10.08168,9.947083 -1.65151,-0.05224 -2.61091,-0.987376 -3.83837,-1.985753 -0.23812,2.022227 -1.17396,3.826663 -2.07611,5.615136 -2.08332,3.965414 -7.52746,5.712859 -12.568439,9.947104 -5.040634,4.23431 1.612996,19.356811 3.226255,22.112181 1.612994,2.75564 6.115934,3.76373 4.368644,6.25076 -0.53454,0.82135 -1.35188,1.11511 -2.2254,1.43375 z"
       fill="#000000"
       id="path8"
       style="opacity:1;fill:#ffffff;stroke-width:1.33333"
       inkscape:label="motovun"
       clip-path="url(#clipPath5)" /></g><g
     inkscape:groupmode="layer"
     id="layer1"
     inkscape:label="tiddlywiki.com.upgrade"
     inkscape:highlight-color="#5778d8"
     style="display:none"><g
       fill-rule="evenodd"
       id="g2"
       style="stroke-width:0.229167"
       inkscape:label="download-button"><circle
         style="display:inline;fill:url(#linearGradient10);stroke-width:7.99998;stroke-linecap:round;stroke-linejoin:round"
         id="circle8"
         cx="64"
         cy="64"
         r="60"
         inkscape:label="circle" /><path
         d="M 64,128 C 99.346,128 128,99.346 128,64 128,28.654 99.346,0 64,0 28.654,0 0,28.654 0,64 c 0,35.346 28.654,64 64,64 z m 0,-16 C 90.51,112 112,90.51 112,64 112,37.49 90.51,16 64,16 37.49,16 16,37.49 16,64 c 0,26.51 21.49,48 48,48 z"
         class="tc-image-download-button-ring"
         id="path1"
         style="fill:url(#linearGradient1);stroke-width:0.229167"
         inkscape:label="circle" /><path
         d="m 34.35,66.43 26.892,27.205 a 4.57,4.57 0 0 0 6.516,0 L 94.65,66.43 a 4.7,4.7 0 0 0 0,-6.593 4.581,4.581 0 0 0 -3.258,-1.365 h -8.46 c -2.545,0 -4.608,-2.087 -4.608,-4.661 v -15.15 c 0,-2.575 -2.063,-4.662 -4.608,-4.662 H 55.284 c -2.545,0 -4.608,2.087 -4.608,4.662 v 15.15 c 0,2.574 -2.063,4.661 -4.608,4.661 h -8.46 C 35.063,58.472 33,60.559 33,63.134 a 4.69,4.69 0 0 0 1.35,3.296 z"
         id="path2-3"
         style="fill:url(#linearGradient11);stroke-width:0.229167"
         inkscape:label="arrow" /></g></g></svg>
