<svg xmlns="http://www.w3.org/2000/svg" color-interpolation="auto" height="492" width="576" stroke-linecap="square" stroke="#000000" font-family="Dialog" font-size="12" stroke-miterlimit="10"><style><![CDATA[.C{stroke:none}.E{stroke-miterlimit:1.45000005}.F{fill:none}.I{stroke-linecap:butt}.G{fill:#f1c122}.L{font-size:26.667px}.M{fill:#4f4f4f}.D{fill:#d84100}.H{fill:#006eff}]]></style><defs><clipPath id="A"><path d="M-15-15h630v745H-15z"/></clipPath></defs><g clip-path="url(#A)" shape-rendering="geometricPrecision" text-rendering="geometricPrecision"><rect class="C D" x="15.917" height="40" rx="4" width="40" y="161.955"/><rect class="E F" x="15.917" height="40" rx="4" width="40" y="161.955"/><rect class="C D" height="40" rx="4" width="80" y="191.955" x="95.917"/><rect class="E F" height="40" rx="4" width="80" y="191.955" x="95.917"/><rect class="C D" height="40" rx="4" width="40" y="191.526" x="204.242"/><rect class="E F" height="40" rx="4" width="40" y="191.526" x="204.242"/><rect class="C G" height="40" rx="4" width="40" y="371.526" x="284.242"/><rect class="E F" height="40" rx="4" width="40" y="371.526" x="284.242"/><rect class="C" height="40" rx="4" width="40" y="251.526" x="284.242" fill="#008b00"/><rect class="E F" height="40" rx="4" width="40" y="251.526" x="284.242"/><rect class="C H" height="40" rx="4" width="80" y="281.526" x="384.242"/><rect class="E F" height="40" rx="4" width="80" y="281.526" x="384.242"/><rect class="C G" height="40" rx="4" width="40" y="131.955" x="95.917"/><rect class="E F" height="40" rx="4" width="40" y="131.955" x="95.917"/><rect class="C H" height="40" rx="4" width="40" y="221.526" x="384.242"/><rect class="E F" height="40" rx="4" width="40" y="221.526" x="384.242"/><rect class="C H" height="40" rx="4" width="40" y="221.526" x="504.242"/><rect class="E F" height="40" rx="4" width="40" y="221.526" x="504.242"/><rect class="C G" height="40" rx="4" width="40" y="101.526" x="284.242"/><rect class="E F" height="40" rx="4" width="40" y="101.526" x="284.242"/><rect class="C G" height="40" rx="4" width="40" y="131.526" x="384.242"/><rect class="E F" height="40" rx="4" width="40" y="131.526" x="384.242"/><rect class="C G" height="40" rx="4" width="60" y="71.526" x="384.242"/><rect class="E F" height="40" rx="4" width="60" y="71.526" x="384.242"/><rect class="C G" height="40" rx="4" width="40" y="11.526" x="284.242"/><rect class="E F" height="40" rx="4" width="40" y="11.526" x="284.242"/><rect class="C G" height="40" rx="4" width="40" y="401.526" x="384.242"/><rect class="E F" height="40" rx="4" width="40" y="401.526" x="384.242"/><rect class="C G" height="40" rx="4" width="40" y="161.526" x="504.242"/><rect class="E F" height="40" rx="4" width="40" y="161.526" x="504.242"/><rect class="C G" height="40" rx="4" width="40" y="101.526" x="504.242"/><rect class="E F" height="40" rx="4" width="40" y="101.526" x="504.242"/><rect class="C G" height="40" rx="4" width="80" y="341.526" x="384.242"/><rect class="E F" height="40" rx="4" width="80" y="341.526" x="384.242"/><rect class="C G" height="40" rx="4" width="60" y="11.526" x="384.242"/><g class="E F"><rect height="40" rx="4" width="60" y="11.526" x="384.242"/><g class="I"><path d="M64.54 181.955h12.03v30h19.35"/></g></g><path class="C" d="M55.887 181.955l12-5-3 5 3 5z"/><path class="E F I" d="M183.636 211.526h20.33" stroke-width=".731"/><path class="C" d="M175.897 211.525l12-5-3 5 3 5z"/><path class="E F I" d="M252.69 211.526h12.03v180h19.984"/><path class="C" d="M244.212 211.526l12-5-3 5 3 5z"/><path class="E F I" d="M252.69 211.526h12.03v60h19.984"/><path class="C" d="M324.25 271.526l12-5-3 5 3 5z"/><path class="E F I" d="M332.703 271.526h32.018v30h20"/><path d="M324.25 391.66l12-5-3 5 3 5z" class="C"/><path class="E F I" d="M64.887 181.955H76.57v-30h19.4m236.723 119.57h32.018v-30h19.984m48.025.001h72.02"/><path class="C" d="M423.72 241.526l12-5-3 5 3 5z"/><path class="E F I" d="M252.69 211.526h12.03v-90h19.984"/><path class="C" d="M323.728 121.526l12-5-3 5 3 5z"/><path class="E F I" d="M332.703 121.526h32.018v30h19.984"/><path class="E F I" d="M332.703 121.526h32.018v-30h20m-132.03 120h12.03v-180h19.984"/><path class="C" d="M323.728 31.526l12-5-3 5 3 5z"/><path class="E F I" d="M332.703 391.526h32.018v30h19.984m48.02-270h51.996v30h19.984"/><path class="E F I" d="M432.725 151.526h51.996v-30h19.984"/><path class="C" d="M423.725 151.526l12-5-3 5 3 5z"/><path class="E F I" d="M332.703 391.526h32.018v-30h20m-51.993-330h51.98"/></g><g class="C" letter-spacing="0" word-spacing="0" font-family="sans-serif"><text class="L" y="481.371" x="259.32" xml:space="preserve"><tspan class="M" y="481.371" x="259.32">DEPTH</tspan></text><g font-size="40"><text y="481.371" x="395.524" xml:space="preserve"><tspan class="L M" y="481.371" x="395.524">1</tspan></text><text y="481.547" x="516.117" xml:space="preserve"><tspan class="L M" y="481.547" x="516.117">2</tspan></text><text xml:space="preserve" x="215.524" y="481.371"><tspan class="L M" x="215.524" y="481.371">1</tspan></text><text xml:space="preserve" x="107.792" y="481.547"><tspan class="L M" x="107.792" y="481.547">2</tspan></text><text y="481.358" x="27.486" xml:space="preserve"><tspan class="L M" y="481.358" x="27.486">3</tspan></text><text y="325.27" x="268.643" xml:space="preserve"><tspan class="L" y="325.27" x="268.643" fill="#008b00">BASE</tspan></text><text xml:space="preserve" x="506.384" y="325.27"><tspan class="L H" x="506.384" y="325.27">TO</tspan></text><text y="325.27" x="96.958" xml:space="preserve"><tspan class="L D" y="325.27" x="96.958">FROM</tspan></text></g></g></svg>