<svg xmlns="http://www.w3.org/2000/svg" width="576" height="492" color-interpolation="auto" stroke-miterlimit="10" font-size="12" font-family="Dialog" stroke="#000000" stroke-linecap="square"><style><![CDATA[.B{clip-path:url(#A)}.C{shape-rendering:geometricPrecision}.D{stroke:none}.E{stroke-miterlimit:1.45000005}.F{fill:none}.G{stroke-linecap:butt}.H{fill:#f1c122}.I{letter-spacing:0}.J{word-spacing:0}.K{font-size:26.667px}.L{fill:#4f4f4f}.M{fill:#d84100}.N{fill:#006eff}]]></style><defs><clipPath id="A"><path d="M-15-15h630v745H-15z"/></clipPath></defs><g text-rendering="geometricPrecision" class="B C"><rect y="161.955" width="40" rx="4" height="40" x="15.917" class="D M"/><rect y="161.955" width="40" rx="4" height="40" x="15.917" class="E F"/><rect x="95.917" y="191.955" width="80" rx="4" height="40" class="D M"/><rect x="95.917" y="191.955" width="80" rx="4" height="40" class="E F"/><rect x="204.242" y="191.526" width="40" rx="4" height="40" class="D M"/><rect x="204.242" y="191.526" width="40" rx="4" height="40" class="E F"/><rect x="284.242" y="371.526" width="40" rx="4" height="40" class="D H"/><rect x="284.242" y="371.526" width="40" rx="4" height="40" class="E F"/><rect x="284.242" y="251.526" width="40" rx="4" height="40" fill="#008b00" class="D"/><rect x="284.242" y="251.526" width="40" rx="4" height="40" class="E F"/><rect x="384.242" y="281.526" width="80" rx="4" height="40" class="D N"/><rect x="384.242" y="281.526" width="80" rx="4" height="40" class="E F"/><rect x="95.917" y="131.955" width="40" rx="4" height="40" class="D H"/><rect x="95.917" y="131.955" width="40" rx="4" height="40" class="E F"/><rect x="384.242" y="221.526" width="40" rx="4" height="40" class="D N"/><rect x="384.242" y="221.526" width="40" rx="4" height="40" class="E F"/><rect x="504.242" y="221.526" width="40" rx="4" height="40" class="D N"/><rect x="504.242" y="221.526" width="40" rx="4" height="40" class="E F"/><rect x="284.242" y="101.526" width="40" rx="4" height="40" class="D H"/><rect x="284.242" y="101.526" width="40" rx="4" height="40" class="E F"/><rect x="384.242" y="131.526" width="40" rx="4" height="40" class="D H"/><rect x="384.242" y="131.526" width="40" rx="4" height="40" class="E F"/><rect x="384.242" y="71.526" width="60" rx="4" height="40" class="D H"/><rect x="384.242" y="71.526" width="60" rx="4" height="40" class="E F"/><rect x="284.242" y="11.526" width="40" rx="4" height="40" class="D H"/><rect x="284.242" y="11.526" width="40" rx="4" height="40" class="E F"/><rect x="384.242" y="401.526" width="40" rx="4" height="40" class="D H"/><rect x="384.242" y="401.526" width="40" rx="4" height="40" class="E F"/><rect x="504.242" y="161.526" width="40" rx="4" height="40" class="D H"/><rect x="504.242" y="161.526" width="40" rx="4" height="40" class="E F"/><rect x="504.242" y="101.526" width="40" rx="4" height="40" class="D H"/><rect x="504.242" y="101.526" width="40" rx="4" height="40" class="E F"/><rect x="384.242" y="341.526" width="80" rx="4" height="40" class="D H"/><rect x="384.242" y="341.526" width="80" rx="4" height="40" class="E F"/><rect x="384.242" y="11.526" width="60" rx="4" height="40" class="D H"/><g class="E F"><rect x="384.242" y="11.526" width="60" rx="4" height="40"/><g transform="translate(15.917 -40.545)" class="G"><path d="M39.97 222.5H52v30h20"/></g></g><path d="M80 252.5l-12-5 3 5-3 5z" transform="translate(15.917 -40.545)" class="D"/><path d="M153.918 485h38.066" transform="matrix(.534035 0 0 1 93.699646 -273.474365)" class="E F G"/><g transform="translate(4.242 -273.474)"><path d="M199.984 485l-12-5 3 5-3 5z" class="D"/><path d="M239.97 485H252v180h19.984" class="E F G"/><path d="M279.984 665l-12-5 3 5-3 5z" class="D"/><path d="M239.97 485H252v60h19.984" class="E F G"/><path d="M279.984 545l-12-5 3 5-3 5z" class="D"/><path d="M319.982 545H352v30h20" class="E F G"/><path d="M380 575l-12-5 3 5-3 5z" class="D"/></g><g transform="translate(15.917 -40.545)"><path d="M39.97 222.5H52v-30h19.984" class="E F G"/><path d="M79.984 192.5l-12-5 3 5-3 5z" class="D"/></g><g transform="translate(4.242 -273.474)"><path d="M319.982 545H352v-30h19.984" class="E F G"/><path d="M379.984 515l-12-5 3 5-3 5z" class="D"/><path d="M420 515h72.02" class="E F G"/><path d="M500.03 515l-12-5 3 5-3 5z" class="D"/><path d="M239.97 485H252v-90h19.984" class="E F G"/><path d="M279.984 395l-12-5 3 5-3 5z" class="D"/><path d="M319.982 395H352v30h19.984" class="E F G"/><path d="M379.984 425l-12-5 3 5-3 5z" class="D"/><path d="M319.982 395H352v-30h20.01" class="E F G"/><path d="M380.01 365l-12-5 3 5-3 5z" class="D"/><path d="M239.97 485H252V305h19.984" class="E F G"/><path d="M279.984 305l-12-5 3 5-3 5z" class="D"/><path d="M319.982 665H352v30h19.984" class="E F G"/><path d="M379.984 695l-12-5 3 5-3 5z" class="D"/><path d="M420.004 425H472v30h19.984" class="E F G"/><path d="M499.984 455l-12-5 3 5-3 5z" class="D"/><path d="M420.004 425H472v-30h19.984" class="E F G"/><path d="M499.984 395l-12-5 3 5-3 5z" class="D"/><path d="M319.982 665H352v-30h20" class="E F G"/><path d="M380 635l-12-5 3 5-3 5z" class="D"/><path d="M320.007 305h51.98" class="E F G"/><g class="D"><path d="M379.988 305l-12-5 3 5-3 5z"/></g></g></g><g font-family="sans-serif" class="D I J"><text xml:space="preserve" x="259.32" y="481.371" class="K"><tspan x="259.32" y="481.371" class="L">DEPTH</tspan></text><g font-size="40"><text xml:space="preserve" x="395.524" y="481.371"><tspan x="395.524" y="481.371" class="K L">1</tspan></text><text xml:space="preserve" x="516.117" y="481.547"><tspan x="516.117" y="481.547" class="K L">2</tspan></text><text y="481.371" x="215.524" xml:space="preserve"><tspan y="481.371" x="215.524" class="K L">1</tspan></text><text y="481.547" x="107.792" xml:space="preserve"><tspan y="481.547" x="107.792" class="K L">2</tspan></text><text xml:space="preserve" x="27.486" y="481.358"><tspan x="27.486" y="481.358" class="K L">3</tspan></text><text xml:space="preserve" x="268.643" y="325.27"><tspan x="268.643" y="325.27" fill="#008b00" class="K">BASE</tspan></text><text y="325.27" x="485.284" xml:space="preserve"><tspan y="325.27" x="485.284" class="K N">FROM</tspan></text><text xml:space="preserve" x="98.059" y="325.27"><tspan x="98.059" y="325.27" class="K M">TO</tspan></text></g></g></svg>