<?xml version="1.0" encoding="UTF-8" standalone="no"?>
<!DOCTYPE svg PUBLIC "-//W3C//DTD SVG 1.1//EN" "http://www.w3.org/Graphics/SVG/1.1/DTD/svg11.dtd">
<svg id="motovun-jack" xmlns="http://www.w3.org/2000/svg" viewBox="0 0 510 316" version="1.1">
 <path id="jack" fill="#000" d="m188.07,269.52c-6.934-7.687-17.358-18.936-24.884-26.052-1.7627-9.186-1.953-18.79-0.7782-26.808-2.9667,7.0407-6.7316,13.885-8.7551,21.296-0.82942,8.5127,12.044,27.195,20.044,29.547,4.2386-0.51944,8.1681-0.40597,12.448,3.0806s4.3562,9.1101,2.0939,12.762c-4.7359,6.709-24.155,6.402-33.535,2.233-10.656-4.735-36.405-37.982-40.386-62.882,10.591-20.029,26.02-37.475,33.826-59.283-15.643-14.084-25.766-17.74-24.518-50.87-16.742,3.1342-8.06,1.9681-26.07,3.3305-57.356-0.17549-107.8-39.065-79.394-99.506,1.847-3.579,3.604-6.833,6.735-5.279,2.513,1.247,2.152,6.249,0.88798,11.796-16.235,72.219,63.112,72.772,111.89,59.408,21.133-18.199,28.559-19.302,55.616-21.444,29.208-3.3281,64.312,12.058,82.148,12.561,31.71-3.7031,63.63-10.081,95.111-0.01842,3.4873-18.389,10.32-58.966,21.266-63.391,9.82,1.551,17.387,14.933,22.988,22.083l0.023-0.004c11.407-0.45001,22.262,2.444,33.055,5.656,19.54-2.773,53.193-22.282,53.193-22.282s-25.684,20.596-17.86,58.975c0.74304,11.144-2.406,23.243-6.299,34.654-7.285,18.59-20.293,38.185-36.622,37.18-6.173-0.19526-10.82-3.6906-15.408-7.4223-0.89001,7.5586-4.388,14.303-7.76,20.988-7.787,14.822-28.136,21.353-46.978,37.18-18.841,15.827,6.029,72.351,12.059,82.65,6.029,10.3,22.86,14.068,16.329,23.364-3.4916,4.373-7.6294,5.2695-12.75,5.9349-19.35-0.54698-27.861-0.49994-37.716-16.705-7.2602,0.46082-16.911-0.19693-18.858-0.29395-9.9719-0.38803-8.3745-9.863-10.129-14.869-2.8063-16.993,3.7136-34.074,3.5079-51.07-0.0728-6.0333-8.6103-27.389-11.66-35.024-31.823,5.2758-61.661,3.862-95.489-3.643-4.2964,17.748-17.067,42.589-6.5111,60.627,12.813,18.658,21.804,23.827,35.741,24.952,13.937,1.1241,17.084,16.859,13.712,22.479-5.978,5.8641-13.783,5.5816-21.6,5.949-7.0149-0.23599-13.285-2.13-19.536-5.051"/>
</svg>
