<svg xmlns="http://www.w3.org/2000/svg" width="128" height="128" viewBox="0 0 128 128"><path d="M94 116.5c-2.177 0-3.175-1.462-6-1.5 0 0-3.185.09-5 0-3.036-.118-1.878-5.517-6-6-3.85-.45-11 0-11 0s3.5 2 7 2c4.886 0 4.815 5.8.5 6-42.75 1.974-35.335-6.065-38.5-4-4.888 11.516 33.75 8 38 7 2.963-.594 4.556 1.546 4 3s-1.337 2.117-5 2.5c0 0-9.824 1.458-24 1-9.508-.308-17-3-20-6.5s-2.376-8.36 0-15c1.25-3.75-5.5-12.25-1-38 3.55-20.315 14.5-27.5 18-30s7.75-3.75 10-6 .75-6.5 12-17.5C67.75 6 68.51 3.25 73 0c2.988.472 5.295 4.823 7 7 3.48-.14 6.715.522 10 1.5 5.948-.844 10.247-4.9 15.5-7.5-5.322 4.347-6.108 11.46-5.5 18 .227 3.394-.815 7.525-2 11-2.22 5.662-4.03 12.806-9 12.5-1.88-.06-3.603-.363-5-1.5-.27 2.302.195 3.654 1 5 4.857 8.5 6 16.25 3 24-5.25 11.75 3.165 33.863 5 37 1.836 3.136 7.36 3.393 6 7-.524 1.39-2.823 2.5-5 2.5z"/></svg>
