<svg xmlns="http://www.w3.org/2000/svg" width="128" height="128" viewBox="0 0 128 128"><path d="M128 47.3c-5.253 2.6-10.252 5.856-16.2 6.7-3.285-.978-6.62-1.74-10.1-1.6-1.705-2.177-4.012-6.328-7-6.8-5.094 1.787-5.252 9.528-7.4 20-3.67-1.383-23.642-7.625-36.3-7.6-15.262.03-28.437 5.284-35 9.5C9.85 71.45 4.704 79.376 4 86c-5.477 7.024-5 23.5 6 29 12.867 6.434 20.455-4.646 39 4 2.855 1.27 6.56 2.043 8 0 1.022-1.607-3-4-3-4-.023.026-4.225-2.123-7-3-2.738-.865-7.983-2.3-15-2-7.018.3-9.148 1.3-14 1.3-8.52 0-12.56-11.02-10-16.3 1.46 8.62 9.815 11.315 17 10 10.372-1.9 16.746-1.063 25 1 4.675 1.17 5-3 5-3s7.77-.966 11-1c4.026-.043 23.026.563 25.6 2 1.9.89 3.812 1.93 5.947 2 0 0 4.01.246 5.453 0s2.092-.316 3-1.5c1.026-1.71-1-3.5-1-3.5s1.6-.666 3 1c1.55 1.844 3.733 2.12 7 2 1.93-.07 2.96-.67 4-2 1.987-2.832.08-5.003-1-6-3.02-2.79-13.4-2.92-13.5-8-.01-.45.03-.798.3-3.1 1.397 1.137 2.52 2.04 4.4 2.1 4.97.306 9.18-5.54 11.4-11.2 1.184-3.475 2.226-7.106 2-10.5-.61-6.54.078-13.653 5.4-18z"/></svg>
