<svg xmlns="http://www.w3.org/2000/svg" width="1073" height="232"><g fill="#000" fill-rule="nonzero"><path d="M157.972 224h26.053l-6.756-11.94-70.621-124.802-.04 7.95L157.124 8h-25.588L89.064 82.431h13.897L60.489 8H34.574l50.855 87.227-.051-7.969L14.756 212.06 8 224h25.761l2.289-4.102 66.949-120-13.98-.013 66.667 120zM1038.972 224h26.053l-6.756-11.94-70.621-124.802-.04 7.95 43.559-75.198L1038.124 8h-25.588l-2.302 4.035-40.17 70.396h13.897l-40.169-70.396L941.489 8h-25.915l7.013 12.029 43.842 75.198-.051-7.969-70.622 124.802L889 224h25.761l2.289-4.102 66.949-120-13.98-.013 66.667 120zM191 224h106.904l10-21.65H204.932l8 8V65.153l-8 8h101.955l10-21.65H204.932l8 8V21.65l-8 8h88.452l10-21.65H191v208zM478 224h106.904l10-21.65H491.932l8 8V65.153l-8 8h101.955l10-21.65H491.932l8 8V21.65l-8 8h88.452l10-21.65H478v208zM762 224h106.904l10-21.65H775.932l8 8V65.153l-8 8h101.955l10-21.65H775.932l8 8V21.65l-8 8h88.452l10-21.65H762v208zM437.831 224h22.214V8l-71.304 61.952h10.564L328 8v216h22.215V39.062l-12.48 5.968 55.911 49.911 56.357-49.889-12.172-5.99zM722.831 224h22.214V8l-71.304 61.952h10.564L613 8v216h22.215V39.062l-12.48 5.968 55.911 49.911 56.357-49.889-12.172-5.99z"/></g></svg>