<?xml version="1.0"?>
<!DOCTYPE svg PUBLIC "-//W3C//DTD SVG 1.1//EN" "http://www.w3.org/Graphics/SVG/1.1/DTD/svg11.dtd">
<svg xmlns="http://www.w3.org/2000/svg" xmlns:xl="http://www.w3.org/1999/xlink" version="1.1" viewBox="216 290 330 333" width="330pt" height="333pt"><metadata xmlns:dc="http://purl.org/dc/elements/1.1/"><dc:date>2011-10-18 15:32Z</dc:date><!-- Produced by OmniGraffle Professional 5.3.6 --></metadata><defs></defs><g stroke="none" stroke-opacity="1" stroke-dasharray="none" fill="none" fill-opacity="1"><title>Canvas 1</title><g><title>Layer 1</title><path d="M 442.7708 401.63043 L 413.54462 406.727 C 416.80856 405.83435 422.99722 391.7118 411.13663 390.20697 C 413.2671 386.8555 417.85052 387.3249 420.58444 389.66956 C 422.604 384.71863 427.60233 383.09958 430.95114 388.68173 C 432.43198 385.7193 440.88962 387.0678 441.26031 391.8762 C 445.71463 389.20319 453.64325 389.1528 456.18387 393.38382 C 450.81464 394.85754 442.05713 398.04846 442.7708 401.63043 Z" fill="#9c2aad"/><path d="M 442.7708 401.63043 L 413.54462 406.727 C 416.80856 405.83435 422.99722 391.7118 411.13663 390.20697 C 413.2671 386.8555 417.85052 387.3249 420.58444 389.66956 C 422.604 384.71863 427.60233 383.09958 430.95114 388.68173 C 432.43198 385.7193 440.88962 387.0678 441.26031 391.8762 C 445.71463 389.20319 453.64325 389.1528 456.18387 393.38382 C 450.81464 394.85754 442.05713 398.04846 442.7708 401.63043 Z" stroke="black" stroke-linecap="butt" stroke-linejoin="bevel" stroke-width=".5"/><path d="M 518.7041 423.77078 C 498.43768 432.6787 479.68716 431.40332 463.93137 410.0036 C 431.99905 397.3547 406.8626 398.1261 390.50183 421.21622 L 383.61246 433.08511 L 377.323 440.90723 C 382.73856 444.03094 386.49606 445.22226 391.41977 443.53967 C 423.91724 433.9902 468.78778 433.28616 488.58038 444.35022 C 498.06448 456.83328 499.6226 467.8483 494.2746 477.36945 C 503.37277 477.36603 508.15073 471.44598 508.42218 459.3521 C 511.04926 454.77158 507.64413 451.99799 504.38187 449.18118 C 525.81378 439.93906 522.27124 431.85516 518.7041 423.77078 Z" fill="#9c2aad"/><path d="M 515.3888 443.43765 C 518.471 441.0784 520.69507 437.9082 521.4945 433.98132 C 521.8189 432.39774 521.86353 430.78894 521.6565 429.21866 C 521.47424 427.81204 521.1269 426.37628 520.3556 424.99728 C 519.9676 424.2983 519.48785 423.667 518.76715 423.40582 C 517.23035 422.84723 515.48798 423.0885 513.87372 423.29428 C 512.92957 423.41565 511.97925 423.59198 511.03885 423.78204 C 509.69052 424.05847 508.33154 424.3406 506.97083 424.63992 C 501.95206 425.7452 496.81345 426.90594 491.79453 426.75775 C 489.50748 426.69043 486.84143 426.41138 484.73837 425.243 C 483.0166 424.28519 481.77847 422.83649 480.28064 421.51758 C 479.0265 420.41171 477.68494 419.33054 476.3757 418.2948 C 470.253 413.4426 463.67755 409.29327 456.5536 405.84085 C 452.94205 404.09052 448.98795 402.59589 444.95294 401.59827 C 442.72797 401.04944 440.53168 400.70273 438.31406 400.40283 C 438.84006 400.52283 437.87433 400.25607 437.6907 400.21228 C 437.0046 400.04684 436.324 399.92752 435.6323 399.83856 C 433.8083 399.604 431.9927 399.62048 430.16275 399.66626 C 427.07178 399.74374 423.94662 400.258 420.86484 400.83344 C 418.08362 401.35522 415.37164 401.987 412.6056 402.98746 C 409.47873 404.12247 406.22034 406.00198 403.52374 407.88974 C 400.1043 410.2897 397.14514 413.01318 394.44595 415.91388 C 392.05963 418.4824 389.84894 421.16675 387.91028 424.07095 C 386.33606 426.4332 384.94672 428.80597 383.60333 431.29565 L 382.36902 434.195 L 380.1762 436.21744 C 379.40842 436.9466 378.68204 437.70258 378.08286 438.5649 C 377.73996 439.06534 377.31543 439.69885 377.28165 440.32037 C 377.27112 440.54614 377.24213 440.75742 377.2924 440.9646 C 377.59445 442.17694 378.6471 442.7401 379.72815 443.11148 C 380.39005 443.33875 381.09271 443.51974 381.75955 443.64914 C 382.01099 443.6976 382.24841 443.74545 382.4934 443.79187 C 382.91095 443.87158 383.38864 443.6911 383.79892 443.56262 C 384.48843 443.35104 385.2013 443.12683 385.89847 442.83243 C 387.85168 442.01126 389.57306 440.80511 390.46994 439.13742 C 389.34836 441.00623 386.56912 442.12503 384.4688 442.65445 L 382.76828 443.01486 L 382.5994 442.96335 C 382.42746 442.92148 382.18582 442.87595 382.1112 442.85315 C 381.66962 442.7182 381.19077 442.5948 380.7475 442.43622 C 380.14288 442.2194 379.52637 442.00076 379.0413 441.62515 C 378.83868 441.46918 378.53766 441.2458 378.47046 440.96082 C 378.4148 440.713 378.45386 440.5563 378.50443 440.30374 C 378.5401 440.14069 378.65427 439.94131 378.7529 439.80457 C 378.95038 439.54196 379.12921 439.2646 379.34521 439.0111 C 380.17285 438.0572 381.18527 437.18457 382.1972 436.34192 C 382.71277 435.91553 383.5754 435.41068 383.80746 434.77335 C 384.20676 433.6937 384.76538 432.6681 385.3097 431.67719 C 387.2236 428.2099 389.51834 424.98318 392.04352 421.95483 C 395.70743 417.57056 399.7919 413.42477 404.79626 410.03256 C 406.996 408.5448 409.45505 407.0796 411.98254 406.07022 L 416.27902 404.59872 L 416.93347 404.44382 C 417.4599 404.32422 417.97787 404.2092 418.49374 404.0953 C 420.24756 403.7121 421.9883 403.41174 423.74585 403.1325 C 425.6948 402.82495 427.66772 402.61334 429.61868 402.51404 C 431.9859 402.39453 434.38297 402.3978 436.73083 402.9222 C 437.1294 403.01212 437.55258 403.18408 437.96002 403.24472 C 438.9809 403.40063 439.99966 403.51163 441.03732 403.69385 C 442.98865 404.03482 444.93814 404.56696 446.90097 405.1547 C 449.65054 405.97928 452.27057 407.07675 454.80118 408.21075 C 459.75378 410.42792 464.3754 413.22897 468.7734 416.19778 C 471.06628 417.74371 473.26392 419.38657 475.43463 421.07083 C 476.3458 421.7772 477.2645 422.52313 478.13348 423.26279 C 478.51422 423.58502 478.90454 423.90503 479.2866 424.2348 C 479.43698 424.3642 480.07416 424.93887 479.85065 424.71786 C 480.93756 425.92355 482.08554 426.77869 483.47226 427.56122 C 484.7882 428.3025 486.45273 428.72794 487.93158 428.9884 C 490.94772 429.5218 494.0755 429.32962 497.0675 428.9024 C 499.36826 428.5763 501.6564 428.12918 503.95248 427.61517 C 505.93896 427.1734 507.889 426.6939 509.84332 426.21216 C 511.5575 425.79016 513.31824 425.3433 515.0404 425.15628 C 515.78577 425.07538 516.4734 425.00342 517.1902 425.02194 L 518.11017 425.17706 L 518.92975 426.12527 C 519.1574 426.55344 519.33264 427.03125 519.47327 427.41867 C 520.10858 429.1554 520.25812 430.92477 520.14325 432.68228 C 519.83954 437.44958 516.8954 441.41855 513.12177 444.083 C 510.91116 445.64725 508.19293 447.18768 505.6106 448.06317 C 507.07513 447.70865 508.48352 447.17181 509.94543 446.58221 C 511.87827 445.8046 513.80725 444.65112 515.3888 443.43765 Z" fill="black"/><path d="M 506.25293 473.5787 C 508.8535 469.61313 510.30685 464.44116 510.56366 459.72882 C 510.596 459.17596 510.5855 458.62955 510.5608 458.07169 C 510.4873 456.25116 510.11853 453.92136 508.72733 452.35818 C 508.02225 451.564 507.27094 451.2403 506.2353 450.92358 C 506.79074 451.2318 507.3497 451.3832 507.80432 451.82394 C 509.62582 453.58792 509.81293 456.42484 509.6522 458.62836 C 509.58957 459.51257 509.48672 460.4237 509.31723 461.33218 C 509.0737 462.66888 508.7298 464.0318 508.2878 465.38416 C 507.59198 467.52698 506.70285 469.54672 505.5674 471.37933 C 504.67062 472.83228 503.65628 474.22263 502.39746 475.3786 C 502.02905 475.71854 501.5988 476.07523 501.15814 476.36108 C 499.44434 477.48447 497.79596 477.78995 495.9889 477.20374 L 495.7976 477.11505 L 496.89807 472.3837 C 497.53995 469.11148 497.89682 465.73798 497.67563 462.484 C 497.45987 459.27084 496.88168 456.25583 495.5612 453.051 C 494.27228 449.91623 492.14496 447.35236 489.9294 445.29233 C 485.5158 441.1844 479.30838 438.8215 473.134 437.48242 C 464.10144 435.52316 455.09164 435.53955 446.16891 435.30548 C 444.54523 435.26352 442.94772 435.19934 441.34015 435.07529 C 440.62357 435.02124 439.92178 434.91318 439.21246 434.76566 C 438.90372 434.70132 438.5926 434.71454 438.27774 434.7053 C 437.53952 434.68723 436.79572 434.66397 436.0514 434.66006 C 431.8829 434.6388 427.6738 434.75076 423.50912 435.18152 C 421.5639 435.3838 419.58755 435.4559 417.6453 435.90402 C 411.68729 437.28296 405.68307 439.26007 399.69882 441.04993 C 397.65652 441.6628 395.6023 442.22754 393.54587 442.74728 L 387.39691 444.17609 L 383.2949 444.10587 C 384.62155 444.42276 386.14203 444.79712 387.45505 444.65363 C 390.11862 444.3656 392.7835 443.952 395.43896 443.42368 C 399.01031 442.71564 402.52585 441.79523 406.09457 440.89825 C 408.91104 440.19199 411.72403 439.4331 414.5386 438.7848 C 415.4239 438.5833 416.28992 438.38654 417.16599 438.2035 C 417.51431 438.13248 417.8583 438.06375 418.20563 437.9959 C 418.33392 437.97134 419.11847 437.82065 418.83377 437.86316 C 423.5798 437.48758 428.30453 437.21027 433.05765 437.20618 C 434.21005 437.20526 435.34433 437.2165 436.4891 437.2577 C 437.02441 437.2776 437.54593 437.30206 438.07693 437.32416 C 438.15222 437.3277 438.60287 437.35187 438.72525 437.352 L 441.34653 437.77182 C 442.2693 437.87103 443.19757 437.92935 444.13913 437.96167 C 446.635 438.0484 449.1145 438.12488 451.6349 438.20676 C 454.74002 438.30942 457.86343 438.45126 461.00851 438.69037 C 463.8684 438.9098 466.73285 439.2193 469.55716 439.72952 C 477.4651 441.16385 485.82462 443.7799 490.719 450.23404 C 495.4524 456.47205 495.66928 463.79837 494.7607 470.57288 C 494.5611 472.07922 494.2965 473.60657 493.94647 475.1114 C 493.7948 475.78207 493.63583 476.47006 493.45648 477.15546 C 493.44382 477.2085 493.36987 477.38632 493.38507 477.43542 C 493.52347 477.85938 493.75534 478.32605 493.96497 478.72028 C 493.98975 478.76694 494.1584 478.81323 494.20306 478.8357 C 494.51508 478.98798 494.83426 479.12817 495.15173 479.2394 C 496.98486 479.87967 498.9265 479.79352 500.71664 478.9314 C 503.2868 477.6953 504.8504 475.72202 506.25293 473.5787 Z" fill="black"/><path d="M 399.94818 426.6227 C 400.62823 429.20563 399.14575 431.92978 396.63513 432.71 C 394.12769 433.4914 391.54263 432.03006 390.86255 429.44708 C 390.1858 426.86517 391.66837 424.141 394.17566 423.35974 C 396.68634 422.57947 399.27136 424.04083 399.94818 426.6227 Z" fill="#9c2aad"/><path d="M 399.94818 426.6227 C 400.62823 429.20563 399.14575 431.92978 396.63513 432.71 C 394.12769 433.4914 391.54263 432.03006 390.86255 429.44708 C 390.1858 426.86517 391.66837 424.141 394.17566 423.35974 C 396.68634 422.57947 399.27136 424.04083 399.94818 426.6227 Z" stroke="black" stroke-linecap="butt" stroke-linejoin="bevel" stroke-width=".5"/><path d="M 397.46832 427.46823 C 397.72217 428.42627 397.16968 429.43768 396.23828 429.7264 C 395.31018 430.01593 394.35257 429.47287 394.09875 428.51492 C 393.8482 427.55786 394.40063 426.54633 395.32877 426.25665 C 396.26013 425.96808 397.21774 426.51117 397.46832 427.46823 Z" fill="#9c2aad"/><path d="M 397.46832 427.46823 C 397.72217 428.42627 397.16968 429.43768 396.23828 429.7264 C 395.31018 430.01593 394.35257 429.47287 394.09875 428.51492 C 393.8482 427.55786 394.40063 426.54633 395.32877 426.25665 C 396.26013 425.96808 397.21774 426.51117 397.46832 427.46823 Z" stroke="black" stroke-linecap="butt" stroke-linejoin="bevel" stroke-width=".5"/><path d="M 407.91653 422.46954 C 407.6739 422.04391 407.41565 421.6348 407.13733 421.24442 C 406.39813 420.202 405.5715 419.27103 404.67755 418.4387 C 403.31064 417.16165 401.80392 416.13297 400.23566 415.13693 C 401.7886 416.63596 403.23334 418.19241 404.55823 420.01926 C 405.25668 420.9801 405.8856 421.9943 406.47278 423.09863 C 408.72794 427.33997 409.38931 431.70285 409.33594 436.00528 C 410.3346 431.45578 410.47205 426.91284 407.91653 422.46954 Z" fill="black"/><path d="M 429.245 431.7911 C 434.51141 436.45966 436.38766 440.96506 445.60196 444.56488 C 442.3126 447.7821 439.15152 451.66516 434.06223 445.58105 C 433.6495 451.0534 429.1236 451.0809 425.35397 445.63272 C 424.17923 452.2389 420.70947 450.8728 417.9744 445.86697 C 415.5275 451.84998 411.04724 450.3985 407.56708 446.68616 C 410.60016 444.04022 422.76404 440.6748 422.24445 432.0223 L 429.245 431.7911 Z" fill="#9c2aad"/><path d="M 429.245 431.7911 C 434.51141 436.45966 436.38766 440.96506 445.60196 444.56488 C 442.3126 447.7821 439.15152 451.66516 434.06223 445.58105 C 433.6495 451.0534 429.1236 451.0809 425.35397 445.63272 C 424.17923 452.2389 420.70947 450.8728 417.9744 445.86697 C 415.5275 451.84998 411.04724 450.3985 407.56708 446.68616 C 410.60016 444.04022 422.76404 440.6748 422.24445 432.0223 L 429.245 431.7911 Z" stroke="black" stroke-linecap="butt" stroke-linejoin="bevel" stroke-width=".5"/><path d="M 399.72672 426.68732 C 400.40674 429.27036 398.92422 431.99442 396.41364 432.77472 C 393.90622 433.55594 391.32117 432.09467 390.64108 429.51166 C 389.9643 426.92975 391.4468 424.2056 393.95413 423.42438 C 396.4649 422.6441 399.04987 424.10544 399.72672 426.68732 Z" fill="black"/><path d="M 399.72672 426.68732 C 400.40674 429.27036 398.92422 431.99442 396.41364 432.77472 C 393.90622 433.55594 391.32117 432.09467 390.64108 429.51166 C 389.9643 426.92975 391.4468 424.2056 393.95413 423.42438 C 396.4649 422.6441 399.04987 424.10544 399.72672 426.68732 Z" stroke="black" stroke-linecap="butt" stroke-linejoin="bevel" stroke-width=".5"/><path d="M 397.25024 427.5312 C 397.5041 428.48923 396.9517 429.50082 396.02017 429.78937 C 395.09204 430.07904 394.13455 429.53592 393.88074 428.5779 C 393.63013 427.62085 394.18253 426.60925 395.11066 426.3197 C 396.04205 426.0311 396.99966 426.57416 397.25024 427.5312 Z" fill="white"/><path d="M 251.8898 438.27612 L 282.95639 426.48663 C 279.3002 427.49243 265.26852 417.42426 275.83609 409.19485 C 271.87027 407.18549 267.71954 410.2559 266.42801 414.08014 C 261.65314 410.45996 255.91321 411.75629 255.87485 419.04947 C 252.75641 417.04248 245.38171 423.17139 247.77272 428.01343 C 241.95113 427.987 234.28354 432.46906 234.25476 437.9977 C 240.26834 436.34848 250.5286 434.41833 251.8898 438.27612 Z" fill="#48adb1"/><path d="M 251.8898 438.27612 L 282.95639 426.48663 C 279.3002 427.49243 265.26852 417.42426 275.83609 409.19485 C 271.87027 407.18549 267.71954 410.2559 266.42801 414.08014 C 261.65314 410.45996 255.91321 411.75629 255.87485 419.04947 C 252.75641 417.04248 245.38171 423.17139 247.77272 428.01343 C 241.95113 427.987 234.28354 432.46906 234.25476 437.9977 C 240.26834 436.34848 250.5286 434.41833 251.8898 438.27612 Z" stroke="black" stroke-linecap="butt" stroke-linejoin="bevel" stroke-width=".5"/><path d="M 270.55344 522.20868 C 272.5795 533.8709 274.71136 544.597 274.11359 545.96283 C 260.84763 528.81763 252.09015 516.536 242.58121 513.91443 C 226.57626 500.25726 223.72905 482.91275 231.30061 462.6899 C 236.59644 451.19806 245.95657 443.02869 258.61746 433.81989 C 264.33817 429.93335 274.21683 426.0442 280.9577 425.7634 C 301.5384 425.25201 322.14069 443.29749 326.18811 449.07104 C 334.11728 452.648 336.82773 454.40765 329.2634 458.4359 C 328.81677 459.92676 322.44073 462.19534 321.67493 461.7008 C 308.66354 462.86984 300.02835 461.66235 288.49582 462.625 C 280.8977 464.01498 273.5686 465.80347 266.63562 468.1752 C 255.25656 474.78903 242.97258 483.12402 242.43475 494.39017 C 245.35158 511.8668 257.78445 517.0666 284.64758 499.57794 C 282.12442 506.53497 265.10397 515.9646 270.55344 522.20868 Z" fill="#48adb1"/><path d="M 272.18036 546.97192 C 271.37378 545.98297 270.57672 544.9748 269.77014 544.00244 C 264.85846 538.11133 260.02121 532.0666 254.45407 526.57153 C 251.74619 523.90198 248.9903 521.3166 246.13115 518.96387 C 245.12761 518.14044 244.13623 517.33636 243.11826 516.5705 C 242.34773 515.9944 241.5795 515.44934 240.8497 514.81097 C 239.53658 513.67053 238.1898 512.44617 236.95107 511.13773 C 229.99643 503.80392 225.66574 494.97446 225.37277 484.3157 C 225.32239 482.52957 225.3656 480.73627 225.5072 479.0006 C 225.6969 476.63846 226.07619 474.38419 226.52757 472.14438 C 226.99808 469.799 227.67737 467.49207 228.40479 465.25946 C 228.93295 463.62933 229.51865 462.05698 230.2821 460.5638 C 233.26602 454.72537 237.436 449.4465 242.56848 444.67642 C 244.81314 442.59277 247.08887 440.63144 249.42714 438.7685 C 250.91312 437.58505 252.4256 436.43259 253.94035 435.2947 C 255.856 433.8568 257.75732 432.44275 259.79309 431.2738 C 262.42899 429.76135 265.2497 428.5202 268.11838 427.42078 C 270.71124 426.42932 273.46951 425.58902 276.29749 425.08252 C 277.15689 424.92877 278.02353 424.80399 278.92136 424.69836 C 280.25607 424.54474 281.72519 424.55197 283.09366 424.6312 C 286.48093 424.8352 289.69775 425.38968 292.77301 426.29715 C 299.10815 428.17215 304.91528 431.00485 310.38644 434.5938 C 314.7435 437.45538 319.0263 440.73462 322.82645 444.63797 C 324.09637 445.94397 325.17667 447.21866 326.23297 448.53424 L 326.35785 448.70715 L 331.18304 451.23502 C 332.10254 451.84222 333.29807 452.59125 333.73727 453.64746 C 333.82373 453.85883 333.90048 454.07974 333.9271 454.32944 C 334.05423 455.6665 332.986 456.66043 332.00894 457.35406 C 331.36319 457.81265 330.69092 458.19916 329.99957 458.57608 C 329.75711 458.7081 329.50497 458.83777 329.25772 458.95776 C 328.85693 459.15463 328.30716 459.121 327.8053 459.121 C 326.94116 459.121 326.12732 459.09705 325.32303 459.00333 C 323.03049 458.74173 320.83871 458.11035 319.23752 456.50677 C 321.61182 458.5665 325.50555 458.64325 328.8641 458.27838 C 328.62878 458.34555 329.565 457.80786 329.83398 457.64453 C 330.14343 457.45737 330.44357 457.25803 330.73413 457.042 C 331.46396 456.49954 332.4914 455.79865 332.73624 454.88626 C 332.96188 454.03653 331.9465 453.33072 331.34634 452.9274 C 331.13028 452.7858 330.9094 452.64172 330.68378 452.5145 C 329.66101 451.94794 328.58548 451.4029 327.4765 450.9253 C 326.99872 450.72116 326.5306 450.50516 326.06262 450.3083 C 325.84653 450.21948 325.60645 450.14273 325.41925 450.00113 C 325.10455 449.7658 324.89587 449.4417 324.6558 449.1536 C 323.29944 447.54276 321.71008 445.99188 320.06342 444.5563 C 316.59924 441.54358 312.9143 438.83813 309.09015 436.4687 C 303.87592 433.24213 298.33276 430.6616 292.33606 428.9643 C 289.71939 428.22498 286.89856 427.668 283.98901 427.51682 L 280.6593 427.45197 L 276.5423 428.05203 C 272.5021 428.85388 268.7547 430.23184 265.1753 431.95789 C 263.95578 432.54614 262.76266 433.1726 261.58875 433.82806 C 261.0343 434.1377 260.4916 434.4641 259.96118 434.80984 L 259.12811 435.35477 L 252.99208 440.01688 C 250.9635 441.62045 248.96141 443.27206 246.97855 445.003 C 244.07619 447.53796 241.19781 450.43317 238.83078 453.3931 C 237.04956 455.61847 235.44348 457.89435 234.07509 460.33575 C 233.72946 460.9503 233.41739 461.56253 233.09326 462.18185 C 232.92517 462.5012 232.77164 462.8324 232.6131 463.16132 C 232.59877 463.1876 232.52678 463.3437 232.47151 463.46133 L 232.43784 463.5214 L 230.77911 468.61545 C 229.26424 473.81284 228.28958 479.25266 228.55844 485.26862 C 228.60883 486.4162 228.73131 487.50848 228.88257 488.6056 C 229.40105 492.38412 230.51253 495.86273 232.06572 499.12756 C 233.78702 502.75473 236.15894 506.03888 238.96042 509.11893 C 239.719 509.95676 240.54001 510.74655 241.34897 511.52435 C 241.78592 511.9468 242.2373 512.34534 242.68619 512.74622 C 242.77979 512.83264 242.87589 512.91913 242.97427 513.0031 L 243.04626 513.068 C 243.18307 513.19043 243.0846 513.10406 243.04626 513.0703 C 246.70251 515.96075 250.32503 518.9568 253.73155 522.36078 C 257.60367 526.2354 261.0343 530.23248 264.42868 534.35205 C 266.57245 536.95654 268.64905 539.65735 270.67996 542.32678 C 271.40256 543.2823 272.12756 544.2473 272.84052 545.19324 L 273.13098 545.58698 L 273.39505 545.3684 C 274.5617 543.9881 274.0552 541.35693 273.67114 539.70764 C 273.5679 539.27325 273.4719 538.82672 273.35178 538.39465 C 271.92831 533.30774 269.8422 528.2951 270.16861 522.4593 C 270.28625 523.89966 270.37262 525.19824 270.66309 526.51874 C 271.53699 530.5157 273.22461 534.22943 274.47046 538.073 C 274.66495 538.68036 274.8594 539.302 275.00595 539.9311 C 275.55325 542.30762 276.03818 545.4524 273.82718 547.09686 C 273.33023 547.46655 272.64606 547.5481 272.18036 546.97192 Z" fill="black"/><path d="M 271.09467 519.16718 C 270.49698 518.14697 270.3938 516.81476 270.77063 515.59747 C 271.30359 513.87146 272.44147 512.3111 273.69467 510.93552 C 275.27179 509.20227 277.00027 507.48343 278.69513 505.7405 L 281.0621 503.07828 L 277.98694 505.0323 C 275.65112 506.38153 273.26004 507.61542 270.80664 508.69818 C 267.34973 510.2249 263.72485 511.4877 259.7518 511.94608 C 256.26117 512.35193 252.78033 511.93176 249.9667 510.52258 C 249.31621 510.19858 248.70163 509.84558 248.10147 509.40393 C 244.76459 506.96014 242.76727 503.43588 241.59094 499.6334 C 241.2044 498.38742 240.88513 497.08386 240.63306 495.75867 C 240.5347 495.24976 240.43152 494.7433 240.48187 494.18872 C 240.63077 492.4554 240.94272 490.90936 241.47568 489.3826 C 242.44801 486.5907 244.05641 484.0772 246.00565 481.76068 C 248.51672 478.77905 251.54404 476.21274 254.624 473.99216 C 257.61273 471.8364 260.7095 469.87262 263.86642 468.04816 C 264.33212 467.77927 264.8003 467.50803 265.27081 467.23444 C 265.97662 466.82385 266.84082 466.63419 267.63062 466.3821 C 269.23419 465.87317 270.84021 465.40262 272.475 464.95615 C 275.38943 464.1615 278.33743 463.46777 281.34305 462.8388 C 284.3534 462.20978 287.27261 461.59518 290.53738 461.4512 C 297.12958 461.1656 303.92575 461.41998 310.60428 461.41998 C 312.90887 461.41998 315.18707 461.38647 317.44131 461.30716 L 324.14627 460.93024 L 326.3645 460.36133 C 327.09662 460.13327 327.81448 459.87405 328.51791 459.58832 C 327.4711 460.18372 326.42691 460.77667 325.29608 461.17273 C 324.9505 461.29517 324.5711 461.45847 324.22311 461.5232 C 321.3064 462.07538 318.3079 462.45465 315.25433 462.73798 C 311.24283 463.11005 307.1282 463.24203 303.00397 463.39563 C 299.75345 463.52048 296.479 463.61182 293.267 463.78943 C 292.24911 463.8471 291.2576 463.9071 290.25894 463.98874 C 289.7909 464.0295 289.32275 464.07272 288.85696 464.11356 C 288.80179 464.1184 288.6289 464.13513 288.4849 464.1472 L 288.30966 464.1592 L 282.62494 465.37384 C 279.3313 466.13486 276.08087 466.97992 272.87836 467.91125 C 271.63239 468.2739 270.41534 468.65082 269.203 469.0516 C 268.63889 469.23886 268.07712 469.42853 267.51773 469.61823 C 267.46985 469.635 267.22726 469.72385 267.03525 469.78864 L 266.88644 469.83667 L 262.28683 472.66223 C 257.55753 475.64142 252.9603 478.89185 249.00653 483.23456 C 246.93 485.51517 245.27835 488.09583 244.35638 490.94312 C 243.99635 492.05457 243.77316 493.22842 243.68193 494.4743 L 243.6771 494.52713 L 244.42613 498.0129 C 245.41756 501.62827 247.10283 504.9868 250.23325 507.15686 C 250.74939 507.51706 251.28947 507.81467 251.83926 508.05475 C 253.83656 508.93326 256.02353 509.2359 258.48416 509.15182 C 260.25104 509.09415 261.90988 508.74612 263.55191 508.36926 C 266.41104 507.7163 269.13098 506.59515 271.7597 505.45007 C 274.98608 504.04568 278.06854 502.34363 281.10535 500.5576 C 281.78708 500.15668 282.46893 499.75095 283.15549 499.32608 C 283.22995 499.2804 283.58044 498.99237 283.66208 499.014 L 283.7269 498.9731 C 284.03891 499.15558 284.33902 499.4894 284.6175 499.72217 C 284.71347 499.8062 284.8191 499.8878 284.91516 499.97183 C 285.00879 500.05832 285.12164 500.1326 285.21283 500.2215 L 285.15286 500.36307 C 285.09283 500.50238 285.02802 500.63678 284.96555 500.77362 C 284.00534 502.87653 282.1857 504.67944 280.43314 506.30954 C 278.01096 508.56137 275.28616 510.6258 273.13052 513.1344 C 272.35025 514.04193 271.56042 515.04053 271.21475 516.1521 C 270.76825 517.57806 270.98187 519.16003 271.9277 520.18756 C 271.59161 520.0099 271.2843 519.49854 271.09467 519.16718 Z" fill="black"/><path d="M 305.11136 446.0443 C 305.19293 449.03317 307.64642 451.49377 310.5896 451.53934 C 313.5304 451.5874 315.84698 449.2011 315.76541 446.21237 C 315.6813 443.226 313.2279 440.76538 310.28711 440.71735 C 307.34393 440.67175 305.02728 443.05795 305.11136 446.0443 Z" fill="#48adb1"/><path d="M 305.11136 446.0443 C 305.19293 449.03317 307.64642 451.49377 310.5896 451.53934 C 313.5304 451.5874 315.84698 449.2011 315.76541 446.21237 C 315.6813 443.226 313.2279 440.76538 310.28711 440.71735 C 307.34393 440.67175 305.02728 443.05795 305.11136 446.0443 Z" stroke="black" stroke-linecap="butt" stroke-linejoin="bevel" stroke-width=".5"/><path d="M 308.04364 446.1677 C 308.0748 447.27676 308.98462 448.1891 310.07693 448.20587 C 311.1668 448.2251 312.02625 447.33926 311.99506 446.23007 C 311.9614 445.12344 311.05157 444.21124 309.96164 444.19202 C 308.86942 444.17523 308.00998 445.06097 308.04364 446.1677 Z" fill="#48adb1"/><path d="M 308.04364 446.1677 C 308.0748 447.27676 308.98462 448.1891 310.07693 448.20587 C 311.1668 448.2251 312.02625 447.33926 311.99506 446.23007 C 311.9614 445.12344 311.05157 444.21124 309.96164 444.19202 C 308.86942 444.17523 308.00998 445.06097 308.04364 446.1677 Z" stroke="black" stroke-linecap="butt" stroke-linejoin="bevel" stroke-width=".5"/><path d="M 270.20065 460.71268 C 266.0115 467.39117 265.41376 472.82623 256.64435 479.596 C 261.19107 482.01584 265.81238 485.19434 269.36765 477.05383 C 271.53543 482.80566 276.4111 481.40613 278.74213 474.365 C 282.09097 481.09402 285.38702 478.53253 286.75061 472.2909 C 291.26617 477.9516 295.62091 474.982 298.19196 469.8927 C 294.10138 468.00336 279.96884 468.2194 277.79861 458.7586 L 270.20065 460.71268 Z" fill="#48adb1"/><path d="M 270.20065 460.71268 C 266.0115 467.39117 265.41376 472.82623 256.64435 479.596 C 261.19107 482.01584 265.81238 485.19434 269.36765 477.05383 C 271.53543 482.80566 276.4111 481.40613 278.74213 474.365 C 282.09097 481.09402 285.38702 478.53253 286.75061 472.2909 C 291.26617 477.9516 295.62091 474.982 298.19196 469.8927 C 294.10138 468.00336 279.96884 468.2194 277.79861 458.7586 L 270.20065 460.71268 Z" stroke="black" stroke-linecap="butt" stroke-linejoin="bevel" stroke-width=".5"/><path d="M 295.8769 454.5162 C 295.4591 453.3303 295.13983 452.08435 294.95502 450.78806 C 294.8182 449.85178 294.75092 448.87949 294.76297 447.8664 C 294.8229 442.12411 297.65088 437.82712 301.17978 433.79395 C 298.4047 438.69122 296.34256 443.83823 296.46017 450.15912 C 296.47458 451.0185 296.52982 451.8539 296.61865 452.67975 C 296.71707 453.60397 296.85144 454.50174 297.02673 455.38525 C 297.27637 456.65994 297.59808 457.87952 297.97495 459.08939 C 297.16354 457.60577 296.43854 456.12216 295.8769 454.5162 Z" fill="black"/><path d="M 305.51346 446.6091 C 306.12561 449.20892 308.7135 450.9182 311.29654 450.4285 C 313.8772 449.94122 315.4737 447.43732 314.86148 444.8374 C 314.24689 442.24 311.65903 440.5307 309.0784 441.018 C 306.4953 441.50778 304.89886 444.0117 305.51346 446.6091 Z" fill="black"/><path d="M 305.51346 446.6091 C 306.12561 449.20892 308.7135 450.9182 311.29654 450.4285 C 313.8772 449.94122 315.4737 447.43732 314.86148 444.8374 C 314.24689 442.24 311.65903 440.5307 309.0784 441.018 C 306.4953 441.50778 304.89886 444.0117 305.51346 446.6091 Z" stroke="black" stroke-linecap="butt" stroke-linejoin="bevel" stroke-width=".5"/><path d="M 308.09927 446.19534 C 308.32495 447.1604 309.2876 447.79407 310.24557 447.61172 C 311.20093 447.43167 311.79144 446.5026 311.56592 445.53763 C 311.33774 444.57495 310.3751 443.9412 309.41974 444.12115 C 308.46185 444.3036 307.87125 445.23267 308.09927 446.19534 Z" fill="white"/><path d="M 355.5029 321.3985 L 330.32993 349.86526 C 332.88419 346.36276 327.78528 327.2825 314.7091 335.2598 C 314.15936 330.20407 319.12628 327.00885 323.74023 327.16959 C 321.79816 320.59912 325.50473 314.98163 333.3211 317.89114 C 332.4353 313.74286 341.97537 308.32944 346.19086 312.84262 C 348.50748 306.60815 356.4079 300.21768 362.33261 302.42145 C 358.1388 308.19028 351.92352 318.38812 355.5029 321.3985 Z" fill="#ea761a"/><path d="M 355.5029 321.3985 L 330.32993 349.86526 C 332.88419 346.36276 327.78528 327.2825 314.7091 335.2598 C 314.15936 330.20407 319.12628 327.00885 323.74023 327.16959 C 321.79816 320.59912 325.50473 314.98163 333.3211 317.89114 C 332.4353 313.74286 341.97537 308.32944 346.19086 312.84262 C 348.50748 306.60815 356.4079 300.21768 362.33261 302.42145 C 358.1388 308.19028 351.92352 318.38812 355.5029 321.3985 Z" stroke="black" stroke-linecap="butt" stroke-linejoin="bevel" stroke-width=".5"/><path d="M 276.05157 355.58249 C 284.67935 370.4688 303.28906 367.37674 332.82648 341.54602 C 346.51248 320.00754 362.45505 311.3797 380.3614 313.93152 C 393.45197 315.7969 404.05078 320.41089 401.1245 339.90872 C 395.35818 339.98798 390.87848 341.72845 385.34027 340.40326 C 370.8381 339.35419 360.75537 345.13007 353.4263 359.12823 C 339.53867 366.64215 322.6958 370.0943 308.36407 371.9859 C 301.10214 380.85867 296.3729 394.40305 309.35309 403.54697 C 288.87808 403.38382 278.97552 396.96695 287.74268 379.51675 C 270.77014 376.54718 267.99988 368.13535 276.05157 355.58249 Z" fill="#ea761a"/><path d="M 281.59845 363.09628 C 279.56516 361.93195 277.99994 360.07388 277.30371 357.87726 C 276.93402 356.71777 276.83322 355.48865 276.81876 354.14188 C 276.9028 355.6639 277.12604 356.99146 277.67578 358.26135 C 278.46564 360.10028 279.96844 361.57904 281.72806 362.51764 C 285.43457 364.50064 290.70401 364.30377 295.0155 363.50916 C 301.18515 362.37363 306.82178 359.96103 312.08405 356.9722 C 317.31976 353.99783 322.26746 350.28406 326.68704 345.69885 C 329.28934 342.99817 331.55551 340.13425 333.47842 337.09262 C 334.165 336.00513 334.80353 334.9032 335.39655 333.76532 C 335.5958 333.38123 335.76862 332.96832 336.00153 332.5986 C 336.5296 331.75836 337.22104 330.97339 337.85959 330.19318 C 342.33673 324.72455 347.91583 320.32175 353.87659 317.27298 C 359.74133 314.27466 366.25186 312.3301 373.47055 312.04205 C 375.63345 311.958 377.83728 312.03479 379.89941 312.27487 C 381.4285 312.45496 382.92892 312.73099 384.37183 313.09103 C 390.11163 314.52661 395.72195 317.5274 399.22925 322.66483 C 399.88712 323.63223 400.47046 324.66931 400.9432 325.73044 C 402.53497 329.31693 403.00546 333.73169 402.38852 337.9952 C 402.33087 338.38171 402.26367 338.75143 402.1941 339.12833 C 402.10513 339.61087 402.0548 339.95898 401.64435 340.19424 C 400.53036 340.83276 398.84747 340.77753 397.45755 340.67917 C 395.2034 340.52307 393.06201 340.0694 391.0263 339.4692 C 388.43369 338.7106 385.86255 337.71915 383.79327 335.9163 C 385.76654 337.47433 388.1455 338.28815 390.58463 338.9147 C 392.16418 339.32281 393.8014 339.6181 395.501 339.7741 C 396.82864 339.8989 398.31232 339.97821 399.6397 339.79092 C 399.94223 339.7501 400.23993 339.6997 400.52078 339.61087 L 401.13058 339.26755 C 401.2627 337.7864 401.43787 336.28119 401.40665 334.70636 C 401.34186 331.75598 400.67206 329.0505 399.50293 326.64746 C 398.88123 325.37512 398.12256 324.19641 397.20074 323.0777 C 395.67163 321.22925 393.7654 319.69519 391.78973 318.55734 C 387.97516 316.3656 383.6132 315.18445 378.8623 314.86993 C 375.10773 314.6251 371.3363 314.94922 367.92026 315.63577 C 360.76636 317.07614 354.25116 320.06491 348.54718 324.36923 C 346.18979 326.14813 343.89954 328.19351 341.83261 330.43808 C 341.14368 331.1847 340.48343 331.95044 339.84976 332.72821 C 339.55444 333.09073 339.27597 333.44849 338.99265 333.81094 C 338.92065 333.90216 338.84863 333.99579 338.77905 334.08456 L 338.62537 334.27667 L 336.45526 338.05289 C 335.651 339.3348 334.78922 340.58795 333.85294 341.80984 C 330.94098 345.6124 327.292 349.21338 323.52777 352.159 C 316.82285 357.40674 309.33536 361.31976 301.1323 363.56201 C 295.2532 365.17038 287.05023 366.2291 281.59845 363.09628 Z" fill="black"/><path d="M 308.19708 404.67249 C 306.3366 404.06992 304.85056 402.43265 303.69598 400.81458 C 302.67322 399.38617 301.90024 397.737 301.28088 396.06616 C 300.4838 393.9248 299.9509 391.66098 299.63406 389.27237 C 299.37955 387.36627 299.35797 385.2537 299.53076 383.28043 C 299.95575 378.4143 301.8955 373.81946 306.02936 371.14032 C 306.69672 370.70825 307.3905 370.37451 308.12741 370.06967 C 308.61957 369.86801 309.19098 369.84637 309.76709 369.8056 C 310.80414 369.736 311.8172 369.66156 312.83752 369.5535 C 314.29462 369.40231 315.7615 369.21988 317.19461 369.0494 C 321.33328 368.56451 325.44565 367.67139 329.32501 366.62482 C 339.01392 364.01285 348.09549 359.88864 355.95758 353.63007 C 357.51324 352.39142 358.9751 351.12625 360.44913 349.70032 C 361.49579 348.68723 362.51126 347.55649 363.44748 346.53629 C 364.43176 345.4632 365.68732 344.56296 366.88034 343.76828 C 369.29059 342.1623 372.16425 341.01953 375.0857 340.4555 C 376.39886 340.20337 377.71445 339.9441 379.10687 339.85764 C 381.27454 339.72562 383.62231 339.67285 385.77576 339.96576 C 387.46817 340.19855 389.10303 340.4458 390.66583 340.95715 C 391.28278 341.16116 391.86853 341.39886 392.47104 341.59811 C 385.8382 340.65231 378.33621 341.17084 372.72116 343.66507 C 371.55203 344.18607 370.44296 344.73099 369.37228 345.42953 C 368.72894 345.84967 368.10474 346.30579 367.50214 346.80511 L 365.80243 348.37756 L 364.89026 349.4794 C 364.2373 350.20435 363.61069 350.98703 362.90973 351.70963 C 360.64603 354.04544 358.24054 356.25885 355.7391 358.1337 C 347.044 364.65622 337.12704 368.87897 326.2378 371.21234 C 322.39679 372.0358 318.44531 372.62158 314.36908 372.95285 L 309.3422 373.24808 L 308.00745 373.84589 C 307.50089 374.11713 307.016 374.4316 306.56943 374.8157 C 303.75589 377.22836 302.72366 380.59409 302.2171 384.21423 C 301.67935 388.0312 302.19067 392.1316 303.1077 395.54523 C 303.49182 396.98322 303.99838 398.3588 304.62018 399.62875 C 305.45319 401.33792 306.66312 403.24167 308.38666 404.18512 C 309.04211 404.5452 309.8631 404.89325 310.71054 404.8021 C 309.97357 405.1141 308.88123 404.89566 308.19708 404.67249 Z" fill="black"/><path d="M 376.59866 333.49438 C 376.04178 332.6518 375.59525 331.72034 375.30475 330.73608 C 375.0863 330.00623 374.95905 329.23563 374.92062 328.41461 C 374.68057 323.45728 378.2623 320.03406 381.85364 317.33093 C 380.96783 318.78815 380.13724 320.26453 379.42426 321.8081 C 378.20947 324.43445 377.21088 327.3872 377.53015 330.66406 C 377.73657 332.8006 378.40637 334.6995 379.28741 336.50003 C 378.2695 335.58057 377.31885 334.5915 376.59866 333.49438 Z" fill="black"/><path d="M 296.16653 403.1927 C 294.33487 402.90704 292.67358 402.42926 291.06763 401.73785 C 289.84567 401.2146 288.70538 400.4704 287.6803 399.56775 C 284.14423 396.46371 282.9559 391.78491 283.51044 386.75803 C 283.67365 385.26248 283.94977 383.8244 284.30026 382.42493 L 284.83557 380.50201 L 282.81421 380.19714 C 281.80118 380.01944 280.80011 379.8106 279.80865 379.5657 C 276.50299 378.75192 273.06528 377.5156 270.67426 374.8917 C 268.88574 372.93277 268.09363 370.35938 268.5281 367.46658 C 268.83298 365.4212 269.642 363.60635 270.58548 361.8756 C 271.74738 359.73895 273.21655 357.80167 274.94745 355.91956 C 273.99435 358.57706 272.79636 361.06897 271.9418 363.77444 C 271.49527 365.18835 271.09436 366.72476 271.15198 368.36197 C 271.18082 369.2743 271.37527 370.09769 271.68497 370.8515 C 272.09543 371.85974 272.98605 372.70001 273.8407 373.33856 C 275.12744 374.30594 276.69507 374.87256 278.29144 375.3934 C 279.29251 375.72232 280.34882 375.9696 281.3931 376.17126 C 282.73505 376.43295 284.07938 376.64178 285.47894 376.83136 C 285.95428 376.89868 286.44394 376.94904 286.93613 376.99945 C 287.01532 377.00906 287.46667 376.99945 287.51224 377.05942 C 287.85553 377.52524 288.14362 378.0557 288.4581 378.5431 C 288.69095 378.9103 288.89264 379.14325 289.09192 379.52975 L 288.98868 379.82257 C 288.92142 380.0147 288.8566 380.21393 288.79184 380.4035 C 288.26126 381.94232 287.79071 383.52435 287.46667 385.16885 C 286.93613 387.84067 286.71521 390.94705 287.47147 393.57098 C 287.67548 394.28638 287.97797 394.97778 288.35248 395.60184 C 288.66934 396.13733 289.00546 396.61737 289.41837 397.10468 C 290.14575 397.9737 291.02197 398.63153 291.91019 399.21243 C 294.15244 400.68643 296.7883 401.44504 299.4194 402.13165 C 300.8189 402.49893 302.24011 402.82538 303.66846 403.1015 C 301.36145 403.6152 298.51434 403.5624 296.16653 403.1927 Z" fill="black"/><path d="M 364.04654 347.15765 C 361.01459 355.64142 361.67963 361.86145 353.55582 371.58398 C 359.2309 373.16605 365.1749 375.57861 367.1386 365.60889 C 370.97964 371.50235 376.07858 368.74405 376.95001 360.30106 C 382.34427 366.9916 385.39789 363.31863 385.38104 356.01114 C 391.82196 361.2205 395.95584 356.82974 397.57147 350.52094 C 392.53741 349.41669 376.80356 353.1376 372.05267 343.0982 L 364.04654 347.15765 Z" fill="#ea761a"/><path d="M 364.04654 347.15765 C 361.01459 355.64142 361.67963 361.86145 353.55582 371.58398 C 359.2309 373.16605 365.1749 375.57861 367.1386 365.60889 C 370.97964 371.50235 376.07858 368.74405 376.95001 360.30106 C 382.34427 366.9916 385.39789 363.31863 385.38104 356.01114 C 391.82196 361.2205 395.95584 356.82974 397.57147 350.52094 C 392.53741 349.41669 376.80356 353.1376 372.05267 343.0982 L 364.04654 347.15765 Z" stroke="black" stroke-linecap="butt" stroke-linejoin="bevel" stroke-width=".5"/><path d="M 394.11249 324.513 C 395.06555 326.76483 394.0813 329.4295 391.91113 330.46414 C 389.73862 331.50128 387.20596 330.5194 386.2529 328.26758 C 385.29742 326.01825 386.28165 323.35349 388.45425 322.3165 C 390.62436 321.28186 393.15707 322.26367 394.11249 324.513 Z" fill="#ea761a"/><path d="M 394.11249 324.513 C 395.06555 326.76483 394.0813 329.4295 391.91113 330.46414 C 389.73862 331.50128 387.20596 330.5194 386.2529 328.26758 C 385.29742 326.01825 386.28165 323.35349 388.45425 322.3165 C 390.62436 321.28186 393.15707 322.26367 394.11249 324.513 Z" stroke="black" stroke-linecap="butt" stroke-linejoin="bevel" stroke-width=".5"/><path d="M 391.97302 325.60217 C 392.32593 326.43756 391.961 327.42422 391.15683 327.80835 C 390.3502 328.1948 389.4116 327.82993 389.05865 326.99448 C 388.70337 326.1615 389.0683 325.1748 389.8749 324.7884 C 390.6791 324.40424 391.6177 324.7691 391.97302 325.60217 Z" fill="#ea761a"/><path d="M 391.97302 325.60217 C 392.32593 326.43756 391.961 327.42422 391.15683 327.80835 C 390.3502 328.1948 389.4116 327.82993 389.05865 326.99448 C 388.70337 326.1615 389.0683 325.1748 389.8749 324.7884 C 390.6791 324.40424 391.6177 324.7691 391.97302 325.60217 Z" stroke="black" stroke-linecap="butt" stroke-linejoin="bevel" stroke-width=".5"/><path d="M 393.34122 324.13898 C 394.29422 326.39087 393.31003 329.05548 391.13983 330.09021 C 388.96722 331.12726 386.43457 330.14545 385.4815 327.89365 C 384.5261 325.64423 385.51035 322.97961 387.6829 321.94247 C 389.85312 320.90784 392.3858 321.88965 393.34122 324.13898 Z" fill="black"/><path d="M 393.34122 324.13898 C 394.29422 326.39087 393.31003 329.05548 391.13983 330.09021 C 388.96722 331.12726 386.43457 330.14545 385.4815 327.89365 C 384.5261 325.64423 385.51035 322.97961 387.6829 321.94247 C 389.85312 320.90784 392.3858 321.88965 393.34122 324.13898 Z" stroke="black" stroke-linecap="butt" stroke-linejoin="bevel" stroke-width=".5"/><path d="M 391.20554 325.22821 C 391.55844 326.06363 391.19351 327.0503 390.38934 327.43442 C 389.58276 327.82095 388.6441 327.45602 388.29123 326.6206 C 387.93588 325.78757 388.30081 324.8009 389.10742 324.41446 C 389.91162 324.03033 390.85028 324.39526 391.20554 325.22821 Z" fill="white"/><path d="M 415.78287 475.16425 L 440.7731 497.8411 C 438.176 494.99905 440.82077 477.66315 453.13977 483.4333 C 453.13208 478.91492 448.43716 476.57825 444.37906 477.16916 C 445.45706 471.17984 441.6387 466.58194 435.02066 469.9125 C 435.3988 466.16418 426.45163 462.31226 423.1708 466.70657 C 420.51797 461.42932 412.92596 456.55597 407.908 459.07904 C 412.17471 463.76093 418.65076 472.15732 415.78287 475.16425 Z" fill="#6974fb"/><path d="M 415.78287 475.16425 L 440.7731 497.8411 C 438.176 494.99905 440.82077 477.66315 453.13977 483.4333 C 453.13208 478.91492 448.43716 476.57825 444.37906 477.16916 C 445.45706 471.17984 441.6387 466.58194 435.02066 469.9125 C 435.3988 466.16418 426.45163 462.31226 423.1708 466.70657 C 420.51797 461.42932 412.92596 456.55597 407.908 459.07904 C 412.17471 463.76093 418.65076 472.15732 415.78287 475.16425 Z" stroke="black" stroke-linecap="butt" stroke-linejoin="bevel" stroke-width=".5"/><path d="M 473.63034 555.8343 C 456.48483 558.63464 445.9123 542.2688 443.53629 527.59686 C 450.29694 501.11655 428.4753 478.4842 402.54788 467.91095 C 393.61075 464.26544 376.06073 464.88104 374.12738 466.12704 C 373.32419 471.47015 375.04141 478.32056 377.64706 485.6908 C 379.33337 490.83664 386.08997 502.12006 392.73682 506.96313 C 408.96988 518.779 428.28653 506.80334 431.53174 532.0155 C 428.25201 536.16876 427.0004 548.42395 429.39157 559.3739 C 432.32513 572.8059 444.49048 585.72302 448.221 584.2527 C 443.6488 580.1703 438.66772 560.8755 446.1792 558.0218 C 454.73883 566.8781 463.14941 567.08142 471.44174 560.726 L 473.63034 555.8343 Z" fill="#6974fb"/><path d="M 469.6531 556.2727 C 471.20618 556.27112 472.69104 556.0893 474.1527 555.81805 C 472.43112 556.0288 470.63184 556.11377 468.78348 555.90973 C 456.94958 554.6178 449.8204 543.99524 446.79868 533.87024 C 446.4818 532.80518 446.21326 531.72913 445.98074 530.64233 L 445.42453 527.63123 L 445.74564 526.39105 C 446.01886 525.24237 446.25464 524.04315 446.42645 522.8473 C 446.92361 519.4198 446.95572 516.12732 446.60382 512.95233 C 445.66104 504.44687 441.9677 496.4851 436.3218 489.50513 C 435.5755 488.58133 434.81662 487.68695 434.02524 486.81116 C 428.8343 481.0669 422.73212 476.43927 416.10278 472.60349 C 413.50339 471.1018 410.81223 469.73267 408.0185 468.4892 C 405.71292 467.4635 403.44147 466.46576 400.8982 465.79315 C 398.0655 465.0474 394.97052 464.65527 392.122 464.45526 C 387.31326 464.11923 382.51056 464.10852 377.98874 464.72992 C 376.87433 464.88443 375.65875 465.00403 374.64487 465.45908 C 374.39557 465.5736 374.09338 465.93228 374.0754 466.21426 C 374.05469 466.56653 374.25159 467.0815 374.323 467.42316 C 374.45483 468.04364 374.59195 468.66254 374.73935 469.27844 C 375.23987 471.36075 375.78036 473.49393 376.77704 475.4175 C 377.32443 476.47443 378.05942 477.5182 378.98508 478.21277 C 380.29562 479.19958 381.98141 479.60648 383.80893 479.9287 C 382.35858 479.5829 381.0357 479.19116 379.8743 478.4647 C 378.39612 477.54343 377.48318 475.86383 376.92633 474.26645 C 376.4687 472.9498 376.14355 471.5859 375.88116 470.19888 L 375.31451 466.48642 C 376.52585 466.14178 377.8891 466.09692 379.18335 466.04236 C 380.8823 465.97388 382.6016 465.9699 384.33206 466.02628 C 388.76886 466.1773 393.73175 466.621 398.25336 467.76923 L 402.55655 469.1619 L 409.08871 472.332 C 411.2194 473.45123 413.29694 474.63657 415.32504 475.90833 C 418.61078 477.96985 421.7566 480.25766 424.69705 482.7701 C 427.80234 485.4263 430.727 488.31866 433.3735 491.5716 C 436.64285 495.59253 439.38742 500.12784 441.16052 504.74048 C 443.10312 509.78775 444.04688 515.122 443.6999 520.85022 C 443.61188 522.3169 443.43527 523.81653 443.15543 525.3346 C 443.0126 526.11633 442.637 527.07153 442.73938 527.81842 C 442.90894 529.05493 443.2659 530.29285 443.589 531.48816 C 444.02676 533.11084 444.55652 534.71075 445.1832 536.2716 C 448.22144 543.84247 453.60507 551.2174 461.10214 554.48706 C 462.81793 555.23572 464.69373 555.79553 466.7094 556.073 C 467.71106 556.21307 468.6896 556.27588 469.6531 556.2727 Z" fill="black"/><path d="M 449.03986 585.63812 L 449.21088 585.58044 C 449.3168 585.2702 449.35364 584.96454 449.4273 584.64355 C 449.50287 584.32544 449.5918 584.029 449.64413 583.7043 C 449.67163 583.54834 449.74487 583.3955 449.7516 583.23328 C 449.75555 583.1828 449.4816 582.98096 449.43817 582.93677 C 449.19537 582.69653 448.98444 582.42773 448.7644 582.14026 C 447.70364 580.74658 446.99261 579.16595 446.37009 577.62274 C 445.00162 574.22717 444.1253 570.62573 443.92807 566.87848 C 443.79932 564.401 444.07846 561.0351 445.98846 559.40955 L 446.61328 559.03223 L 448.8427 561.0146 C 451.7127 563.33197 455.0685 565.20337 459.18286 565.30237 C 459.7145 565.31567 460.2312 565.30194 460.74237 565.25067 C 461.26544 565.20154 461.77917 565.12146 462.2854 565.0158 C 464.71704 564.51093 467.00192 563.40002 469.14352 561.92743 C 469.61188 561.6078 470.06958 561.27887 470.51526 560.9358 C 470.76013 560.74982 471.10025 560.549 471.2931 560.3125 C 471.39127 560.19812 472.18796 558.7492 472.2658 558.6118 C 472.74533 557.77252 473.2237 556.92572 473.70163 556.08118 C 473.18213 556.8988 472.6598 557.7184 472.13583 558.53284 C 471.96356 558.80475 471.78818 559.081 471.6139 559.35004 C 471.41443 559.6659 471.27063 559.88678 471.17056 560.0398 L 471.0973 560.15125 L 468.02908 562.1234 C 464.84924 563.91254 461.38763 564.96472 457.49377 564.11237 C 456.72852 563.94574 456.01166 563.7121 455.32666 563.4353 C 454.5596 563.12695 453.8349 562.7578 453.14258 562.34326 C 451.44894 561.3304 449.93524 560.08594 448.52783 558.69458 C 447.97144 558.14545 447.16812 556.9361 446.15744 557.34528 C 445.97876 557.41864 445.79327 557.503 445.62344 557.5949 C 442.29892 559.4171 441.68338 564.11078 441.8148 567.77588 C 441.843 568.5146 441.89255 569.24243 441.97104 569.9583 C 442.05219 570.70148 442.15771 571.44397 442.28314 572.1706 C 442.4107 572.9123 442.55978 573.64307 442.72739 574.36493 C 442.99655 575.5069 443.30914 576.63696 443.68246 577.74127 L 444.95712 580.9912 L 442.68457 578.97662 C 436.90985 572.9759 432.38889 565.14612 430.5736 557.38623 C 430.61148 557.5587 430.5416 557.2221 430.50604 557.05017 C 430.45294 556.78473 430.40173 556.52222 430.3522 556.25018 C 430.18933 555.3488 430.04797 554.4366 429.93976 553.51562 C 429.6009 550.59888 429.55154 547.5749 429.87494 544.48236 C 430.18616 541.51453 430.81598 538.4956 431.87335 535.9275 C 432.0902 535.40265 432.33289 534.89697 432.59769 534.4049 C 432.83908 533.96234 433.21265 533.5578 433.42245 533.11456 C 433.74207 532.44934 433.7927 531.71973 433.69476 531.0589 C 433.27927 528.23102 432.58432 525.4807 431.39594 522.87494 C 429.74503 519.25647 427.02478 516.49036 423.5601 514.83606 C 418.26035 512.30725 411.43134 512.25867 405.39847 510.9292 C 402.43225 510.27692 399.6731 509.39056 397.1702 508.1157 C 396.3379 507.69342 395.53809 507.23798 394.75781 506.74207 C 394.55188 506.61066 394.35098 506.47766 394.14862 506.33963 C 394.1009 506.30682 394.04584 506.27283 393.9961 506.23718 L 393.86313 506.14792 L 391.03207 503.84482 C 388.32416 501.35394 385.97891 498.34177 383.79999 495.17374 C 381.87881 492.38272 380.12344 489.46729 378.86688 486.47415 C 378.40524 485.3738 377.98422 484.1808 377.56345 483.08264 C 376.29727 479.7709 375.03018 476.46387 373.75964 473.14886 C 374.03278 473.99164 374.30737 474.83966 374.57855 475.67972 C 374.85165 476.5225 375.12665 477.3682 375.39783 478.20825 C 375.67096 479.05103 375.94608 479.89667 376.21716 480.7367 C 377.07556 483.3891 377.81879 486.11383 378.93652 488.67795 C 380.72113 492.7685 383.07547 496.76697 385.87494 500.5076 C 387.28748 502.39478 388.77716 504.19077 390.4054 505.76743 C 391.1238 506.462 391.87164 507.19843 392.68655 507.74677 C 393.42273 508.24463 394.12372 508.79 394.88525 509.26797 C 396.57248 510.33093 398.39105 511.21463 400.3259 511.9653 C 403.17062 513.07147 406.28125 513.80273 409.49496 514.40607 C 414.18262 515.29108 419.03696 515.89355 422.82892 517.97357 C 426.0137 519.72223 428.06952 522.96613 429.134 526.37152 C 429.4911 527.5119 429.7647 528.6839 429.9801 529.8676 C 430.07095 530.36145 430.14813 530.85034 430.2169 531.3451 L 430.25638 531.63245 L 429.23679 533.29553 C 426.2642 539.03864 425.66467 546.90405 426.29648 553.09503 C 426.44522 554.5326 426.65387 555.9345 426.93246 557.3269 C 427.28275 559.073 427.7577 560.77533 428.3661 562.4403 C 429.1668 564.6316 430.15198 566.77252 431.29755 568.86115 C 432.76 571.53003 434.52414 574.1884 436.44653 576.62616 C 437.99667 578.5913 439.6505 580.4236 441.45236 582.05267 C 442.6881 583.17255 443.9773 584.2116 445.46347 584.99048 C 446.47635 585.52252 447.89767 586.01935 449.03986 585.63812 Z" fill="black"/><path d="M 392.6246 495.00363 C 394.31863 494.53448 395.97913 493.81314 397.49097 492.77322 C 402.0798 489.62842 404.42114 484.6589 405.02148 478.6828 C 405.27298 476.19196 405.20782 473.79645 405.05414 471.41946 C 403.62012 479.55222 401.1415 487.29108 394.854 491.81586 C 393.69217 492.65424 392.49405 493.35226 391.25534 493.92126 C 389.41928 494.7675 387.52792 495.36035 385.578 495.84293 C 388.0449 495.82935 390.34567 495.63782 392.6246 495.00363 Z" fill="black"/><path d="M 399.80746 503.36148 C 401.47964 511.1862 400.16489 516.5829 406.17386 526.0938 C 400.99237 526.82074 395.47833 528.24463 394.92065 519.24152 C 390.8458 523.97852 386.68231 520.9505 386.90894 513.4167 C 381.3727 518.67114 379.11728 515.08014 379.99026 508.65002 C 373.70853 512.47864 370.58478 508.12988 369.90576 502.38657 C 374.46548 502.00583 387.87646 507.12753 393.23611 498.85095 L 399.80746 503.36148 Z" fill="#6974fb"/><path d="M 399.80746 503.36148 C 401.47964 511.1862 400.16489 516.5829 406.17386 526.0938 C 400.99237 526.82074 395.47833 528.24463 394.92065 519.24152 C 390.8458 523.97852 386.68231 520.9505 386.90894 513.4167 C 381.3727 518.67114 379.11728 515.08014 379.99026 508.65002 C 373.70853 512.47864 370.58478 508.12988 369.90576 502.38657 C 374.46548 502.00583 387.87646 507.12753 393.23611 498.85095 L 399.80746 503.36148 Z" stroke="black" stroke-linecap="butt" stroke-linejoin="bevel" stroke-width=".5"/><path d="M 392.67337 475.86877 C 391.72366 478.3657 388.93045 479.71848 386.434 478.89066 C 383.93942 478.06573 382.69073 475.37375 383.64044 472.87686 C 384.5921 470.3827 387.38531 469.02997 389.87985 469.8549 C 392.37628 470.6827 393.62506 473.3747 392.67337 475.86877 Z" fill="black"/><path d="M 392.67337 475.86877 C 391.72366 478.3657 388.93045 479.71848 386.434 478.89066 C 383.93942 478.06573 382.69073 475.37375 383.64044 472.87686 C 384.5921 470.3827 387.38531 469.02997 389.87985 469.8549 C 392.37628 470.6827 393.62506 473.3747 392.67337 475.86877 Z" stroke="black" stroke-linecap="butt" stroke-linejoin="bevel" stroke-width=".5"/><path d="M 390.16306 475.1172 C 389.81216 476.0426 388.77536 476.54477 387.84995 476.23535 C 386.92651 475.9287 386.46387 474.93057 386.81473 474.0052 C 387.16757 473.08252 388.20438 472.58044 389.12778 472.88705 C 390.0532 473.19647 390.51584 474.19464 390.16306 475.1172 Z" fill="white"/><path d="M 315.19626 503.27756 L 309.10336 543.39062 C 309.36359 538.7683 293.7388 524.60535 286.63428 539.33624 C 283.21231 535.11743 285.81378 529.37714 290.04251 526.84814 C 284.49673 522.0802 284.57062 514.89417 293.26587 512.97363 C 290.06964 509.76993 295.49216 499.38736 301.88528 500.9948 C 300.35547 494.05533 303.73672 483.75122 310.32684 482.29865 C 309.90863 489.89957 310.23828 502.64322 315.19626 503.27756 Z" fill="#6d6912"/><path d="M 315.19626 503.27756 L 309.10336 543.39062 C 309.36359 538.7683 293.7388 524.60535 286.63428 539.33624 C 283.21231 535.11743 285.81378 529.37714 290.04251 526.84814 C 284.49673 522.0802 284.57062 514.89417 293.26587 512.97363 C 290.06964 509.76993 295.49216 499.38736 301.88528 500.9948 C 300.35547 494.05533 303.73672 483.75122 310.32684 482.29865 C 309.90863 489.89957 310.23828 502.64322 315.19626 503.27756 Z" stroke="black" stroke-linecap="butt" stroke-linejoin="bevel" stroke-width=".5"/><path d="M 360.37427 479.71823 C 343.81323 474.76978 328.20563 475.10336 315.90976 493.7116 L 299.2395 556.60596 C 289.51816 578.36505 262.26764 581.97516 253.65353 558.0036 C 247.702 561.5014 248.24934 572.40942 257.32928 587.1947 C 256.08243 596.01654 257.38123 604.59955 261.2955 612.9362 C 264.78311 602.8109 265.9404 592.95496 289.10031 580.53998 L 329.06287 558.5717 C 340.225 549.12097 348.64478 538.2262 349.14392 523.15076 C 349.89691 514.51135 349.68915 506.07697 357.03525 496.04617 C 359.5827 490.26727 362.22562 484.4647 360.37427 479.71823 Z" fill="#6d6912"/><path d="M 264.74863 603.53894 C 267.90518 596.68042 272.48422 590.6053 277.87115 585.87512 C 282.77338 581.57263 288.44537 578.1642 294.47803 575.17065 C 303.0502 570.92053 312.27103 567.35724 320.41092 562.58392 C 326.32797 559.11694 331.56653 555.0027 336.03229 549.82184 C 337.11298 548.57025 338.12402 547.24677 339.09143 545.86743 L 341.85574 541.60315 L 343.79614 537.24976 C 344.32233 535.7578 344.74841 534.24133 345.1592 532.7138 C 345.81445 530.26178 346.37958 527.8051 346.92917 525.3252 C 348.25467 519.3191 349.46603 513.25226 351.2624 507.34894 C 353.1424 501.16495 355.88617 493.26636 362.11932 490.06445 C 357.55408 492.86035 355.35837 498.3932 353.96542 503.30518 C 353.43857 505.16113 352.9949 507.0332 352.60638 508.919 C 351.9484 512.1137 351.42038 515.3454 350.91702 518.576 C 350.29507 522.57098 349.7394 526.57404 349.00381 530.54047 C 348.3905 533.8355 347.7154 537.12128 346.57327 540.29077 C 345.90771 542.13672 345.00989 543.88464 343.96613 545.65167 C 342.2543 548.55005 340.36264 551.2237 338.26434 553.65442 C 333.06882 559.67792 326.7667 564.25037 319.64127 568.021 C 309.15628 573.56958 297.02652 577.2248 286.77081 583.01794 C 280.47733 586.5738 274.90253 590.9872 270.42511 596.65582 C 266.35959 601.80383 263.22208 607.85596 261.01459 613.8369 C 262.01123 610.3623 263.19699 606.9121 264.74863 603.53894 Z" fill="black"/><path d="M 281.21643 574.5774 C 279.94254 574.76642 278.68079 574.8459 277.44586 574.84454 C 274.63553 574.8451 271.89279 574.4428 269.22467 573.8042 C 268.13379 573.54675 267.06271 573.24963 265.99216 572.91534 C 265.58224 572.78986 265.1824 572.6645 264.77655 572.52563 C 264.46634 572.42236 264.1597 572.3134 263.8505 572.2049 C 263.16074 571.96857 263.4815 572.09393 263.57352 572.1056 C 262.42712 571.80518 261.37042 570.9701 260.47653 570.2132 C 259.62747 569.4972 258.86655 568.70703 258.1514 567.87347 C 256.15585 565.55548 254.29405 562.45453 254.31589 559.01984 C 254.50966 562.99194 257.15399 566.1949 259.76492 568.50043 C 260.62277 569.26135 261.5834 570.0288 262.66086 570.57904 C 263.54095 571.0327 264.48523 571.21777 265.4259 571.45825 C 266.31259 571.68994 267.20096 571.88904 268.09741 572.07123 C 272.86539 573.04486 278.10236 573.47845 283.353 571.69434 C 285.08197 571.10742 286.63245 570.31012 288.0328 569.32758 C 290.18503 567.81866 291.9761 565.94196 293.54068 563.73352 C 296.53018 559.5193 298.3173 554.7193 299.76535 550.05823 C 301.18472 545.4909 302.24924 540.8291 303.23145 536.15558 C 305.40442 525.81866 307.13626 515.35925 310.26169 505.2401 C 312.37616 498.38922 315.35254 490.99667 320.22534 485.2466 C 323.2764 481.64563 327.00262 478.76947 331.64536 477.03793 C 334.2421 476.07126 337.1199 475.51706 339.7605 475.32132 C 345.96103 474.86646 351.94858 476.06796 357.64648 477.88345 C 358.11954 478.03516 358.59225 478.18454 359.06671 478.34082 C 359.7718 478.57822 360.50992 478.6812 360.9618 479.31317 C 361.25275 479.72562 361.2843 480.4773 361.33972 480.9781 C 361.5823 483.2705 361.0814 485.3895 360.16614 487.414 C 358.37604 491.3685 355.0484 494.45465 351.38367 496.37778 C 350.04068 497.0838 348.49158 497.658 346.87271 497.89343 C 348.1527 497.6287 349.2772 497.16766 350.33203 496.60547 C 351.27792 496.1023 352.15811 495.51422 352.98645 494.8673 C 356.71582 491.95328 360.1796 487.22006 359.89462 482.2265 L 359.53827 480.30148 L 357.85358 479.8457 C 356.4924 479.49731 355.13077 479.19601 353.7506 478.9191 C 349.9414 478.1593 346.06686 477.78183 342.04172 478.00116 C 340.39447 478.09268 338.72504 478.32324 337.01422 478.71527 C 329.86334 480.3596 324.8556 484.6761 321.2106 490.42914 C 317.49814 496.28824 315.42664 502.6461 313.694 508.97394 C 311.01355 518.76434 309.31992 528.79108 306.94626 538.65088 C 305.84592 543.21802 304.61566 547.7307 303.02557 552.1798 C 301.78964 555.6375 300.31287 559.03143 298.31534 562.31287 C 294.5047 568.5724 289.14108 573.40564 281.21643 574.5774 Z" fill="black"/><path d="M 340.41873 522.22308 C 344.22507 531.05927 349.27368 535.43164 349.99646 548.93817 C 355.58438 546.0456 361.97998 543.60486 356.26254 534.38678 C 363.5516 536.19403 365.52551 530.32812 360.0624 523.10254 C 369.14691 524.40027 368.86005 519.3108 363.53033 513.61298 C 372.34882 513.00024 372.3837 506.5613 369.0537 500.44928 C 364.31708 503.25323 354.7337 517.60754 343.71988 513.2256 L 340.41873 522.22308 Z" fill="#6d6912"/><path d="M 340.41873 522.22308 C 344.22507 531.05927 349.27368 535.43164 349.99646 548.93817 C 355.58438 546.0456 361.97998 543.60486 356.26254 534.38678 C 363.5516 536.19403 365.52551 530.32812 360.0624 523.10254 C 369.14691 524.40027 368.86005 519.3108 363.53033 513.61298 C 372.34882 513.00024 372.3837 506.5613 369.0537 500.44928 C 364.31708 503.25323 354.7337 517.60754 343.71988 513.2256 L 340.41873 522.22308 Z" stroke="black" stroke-linecap="butt" stroke-linejoin="bevel" stroke-width=".5"/><path d="M 332.6806 501.97403 C 332.14227 501.57135 331.63303 501.14667 331.14832 500.70087 C 330.46872 500.07855 329.82281 499.42325 329.22415 498.7288 C 326.88055 496.01758 325.28027 492.79456 323.83792 489.28214 C 327.39096 494.5518 331.56271 499.21704 337.45297 502.40964 C 338.2712 502.85388 339.0867 503.25674 339.9238 503.62698 C 343.11462 505.04324 346.41837 505.90933 349.80307 506.46585 C 343.66498 506.73444 337.7768 505.8125 332.6806 501.97403 Z" fill="black"/><path d="M 347.56516 482.4999 C 349.35895 484.3957 349.36755 487.42676 347.5859 489.27133 C 345.8025 491.11877 342.90125 491.0827 341.10742 489.18692 C 339.31186 487.29413 339.30331 484.2629 341.08667 482.4154 C 342.86835 480.57086 345.76965 480.6071 347.56516 482.4999 Z" fill="#6d6912"/><path d="M 347.56516 482.4999 C 349.35895 484.3957 349.36755 487.42676 347.5859 489.27133 C 345.8025 491.11877 342.90125 491.0827 341.10742 489.18692 C 339.31186 487.29413 339.30331 484.2629 341.08667 482.4154 C 342.86835 480.57086 345.76965 480.6071 347.56516 482.4999 Z" stroke="black" stroke-linecap="butt" stroke-linejoin="bevel" stroke-width=".5"/><path d="M 345.8332 484.38425 C 346.4988 485.08923 346.50214 486.21408 345.8415 486.8984 C 345.17914 487.58563 344.10419 487.57156 343.4386 486.8667 C 342.77124 486.16464 342.76788 485.03967 343.43024 484.35245 C 344.09094 483.66833 345.16586 483.6823 345.8332 484.38425 Z" fill="#6d6912"/><path d="M 345.8332 484.38425 C 346.4988 485.08923 346.50214 486.21408 345.8415 486.8984 C 345.17914 487.58563 344.10419 487.57156 343.4386 486.8667 C 342.77124 486.16464 342.76788 485.03967 343.43024 484.35245 C 344.09094 483.66833 345.16586 483.6823 345.8332 484.38425 Z" stroke="black" stroke-linecap="butt" stroke-linejoin="bevel" stroke-width=".5"/><path d="M 339.10947 488.19864 C 340.3324 490.57306 343.25693 491.6055 345.64474 490.50537 C 348.03091 489.40823 348.97427 486.5925 347.75131 484.218 C 346.52655 481.8464 343.60202 480.8139 341.216 481.91107 C 338.828 483.01123 337.8848 485.82687 339.10947 488.19864 Z" fill="black"/><path d="M 339.10947 488.19864 C 340.3324 490.57306 343.25693 491.6055 345.64474 490.50537 C 348.03091 489.40823 348.97427 486.5925 347.75131 484.218 C 346.52655 481.8464 343.60202 480.8139 341.216 481.91107 C 338.828 483.01123 337.8848 485.82687 339.10947 488.19864 Z" stroke="black" stroke-linecap="butt" stroke-linejoin="bevel" stroke-width=".5"/><path d="M 341.5216 487.16687 C 341.9739 488.0486 343.06128 488.43066 343.94672 488.02197 C 344.83005 487.61615 345.17838 486.57178 344.72607 485.68994 C 344.27179 484.81107 343.18439 484.42902 342.30093 484.83487 C 341.41565 485.24362 341.06741 486.28796 341.5216 487.16687 Z" fill="white"/></g></g></svg>
