<?xml version="1.0"?>
<!DOCTYPE svg PUBLIC "-//W3C//DTD SVG 1.1//EN" "http://www.w3.org/Graphics/SVG/1.1/DTD/svg11.dtd">
<svg xmlns="http://www.w3.org/2000/svg" xmlns:xl="http://www.w3.org/1999/xlink" version="1.1" viewBox="303 155 39 50" width="17pt" height="22pt"><g stroke="none" stroke-opacity="1" stroke-dasharray="none" fill="none" fill-opacity="1"><g><title>Layer 1</title><path d="M 333 164.25 L 333 157.25 C 333 156.14543 332.10457 155.25 331 155.25 L 314.75 155.25 C 314.75 155.25 314.75 155.25 314.75 155.25 C 313.64543 155.25 312.75 156.14543 312.75 157.25 L 312.75 164.25 L 303.75 164.25 L 303.75 168.75 L 306 168.75 L 306 201.75 L 306 201.75 L 306 201.75 C 306 203.40685 307.34315 204.75 309 204.75 L 336.75 204.75 C 338.40685 204.75 339.75 203.40685 339.75 201.75 L 339.75 168.75 L 342 168.75 L 342 164.25 Z M 317.25 160.75 L 317.25 160.75 C 317.25 160.19772 317.69772 159.75 318.25 159.75 C 318.25 159.75 318.25 159.75 318.25 159.75 L 327.5 159.75 C 328.05228 159.75 328.5 160.19772 328.5 160.75 L 328.5 164.25 L 317.25 164.25 L 317.25 160.75 Z M 310.5 168.75 L 312.75 168.75 L 312.75 200.25 L 310.5 200.25 Z M 317.25 168.75 L 319.5 168.75 L 319.5 200.25 L 317.25 200.25 Z M 324 168.75 L 326.25 168.75 L 326.25 200.25 L 324 200.25 Z M 330.75 168.75 L 333 168.75 L 333 200.25 L 330.75 200.25 Z" fill="#ccc"/></g></g></svg>
