<?xml version="1.0"?>
<!DOCTYPE svg PUBLIC "-//W3C//DTD SVG 1.1//EN" "http://www.w3.org/Graphics/SVG/1.1/DTD/svg11.dtd">
<svg xmlns="http://www.w3.org/2000/svg" xmlns:xl="http://www.w3.org/1999/xlink" version="1.1" viewBox="434 150 68 55" width="22pt" height="18pt"><g stroke="none" stroke-opacity="1" stroke-dasharray="none" fill="none" fill-opacity="1"><g><path d="M 438.49266 178.00797 L 439.00744 177.49319 C 441.35054 175.15008 445.14946 175.15004 447.49262 177.49309 L 452.50734 182.50757 C 454.8505 184.85063 458.6494 184.85058 460.99252 182.50748 L 488.50747 154.99255 C 490.85058 152.64944 494.6495 152.6494 496.99266 154.99246 L 497.50722 155.506995 C 499.8504 157.85009 499.8505 161.64908 497.5074 163.99228 C 497.50738 163.99229 497.50736 163.99231 497.50734 163.99233 L 460.9926 200.5077 C 458.64947 202.85087 454.85048 202.8509 452.50732 200.50778 C 452.5073 200.50777 452.5073 200.50777 452.5073 200.50776 L 438.49268 186.49327 C 436.14952 184.15013 436.1495 180.35114 438.49264 178.00799 C 438.49265 178.00798 438.49265 178.00797 438.49266 178.00797 Z" fill="#ccc"/></g></g></svg>
