<?xml version="1.0"?>
<!DOCTYPE svg PUBLIC "-//W3C//DTD SVG 1.1//EN" "http://www.w3.org/Graphics/SVG/1.1/DTD/svg11.dtd">
<svg xmlns="http://www.w3.org/2000/svg" xmlns:xl="http://www.w3.org/1999/xlink" version="1.1" viewBox="369 153 54 54" width="22pt" height="22pt"><g stroke="none" stroke-opacity="1" stroke-dasharray="none" fill="none" fill-opacity="1"><g><title>Layer 1</title><path d="M 369 202 L 369 202 C 369 204.76142 371.23858 207 374 207 L 418 207 C 420.76142 207 423 204.76142 423 202 L 423 158 C 423 155.23858 420.76142 153 418 153 L 374 153 C 374 153 374 153 374 153 C 371.23858 153 369 155.23858 369 158 L 369 202 C 369 202 369 202 369 202 Z M 380.12132 177.87868 L 380.37868 177.62132 C 381.55025 176.44975 383.44975 176.44975 384.62132 177.62132 L 389.37868 182.37868 C 390.55025 183.55025 392.44975 183.55025 393.62132 182.37868 L 409.62868 166.37132 C 410.80025 165.19975 412.69975 165.19975 413.87132 166.37132 L 414.12868 166.62868 C 415.30025 167.80025 415.30025 169.69975 414.12868 170.87132 L 393.62132 191.37868 C 392.44975 192.55025 390.55025 192.55025 389.37868 191.37868 L 380.12132 182.12132 C 378.94975 180.94975 378.94975 179.05025 380.12132 177.87868 C 380.12132 177.87868 380.12132 177.87868 380.12132 177.87868 L 380.12132 177.87868 Z" fill="#ccc"/></g></g></svg>
