<?xml version="1.0"?>
<!DOCTYPE svg PUBLIC "-//W3C//DTD SVG 1.1//EN" "http://www.w3.org/Graphics/SVG/1.1/DTD/svg11.dtd">
<svg xmlns="http://www.w3.org/2000/svg" xmlns:xl="http://www.w3.org/1999/xlink" version="1.1" viewBox="294 150 58 58" width="22pt" height="22pt"><g stroke="none" stroke-opacity="1" stroke-dasharray="none" fill="none" fill-opacity="1"><g><path d="M 342.76236 158.98764 C 331.77887 148.0041 313.97113 148.0041 302.98764 158.98764 C 292.0041 169.97113 292.0041 187.77887 302.98764 198.76236 C 313.97113 209.7459 331.77887 209.7459 342.76236 198.76236 C 353.7459 187.77887 353.7459 169.97113 342.76236 158.98764 M 326.5425 157.5 L 326.5425 157.5 C 327.72545 157.5 328.72201 157.91022 329.5337 158.73088 C 330.34465 159.55157 330.75 160.54402 330.75 161.7075 C 330.75 162.87172 330.33979 163.86316 329.51911 164.68385 C 328.69842 165.5045 327.70674 165.91501 326.5425 165.91501 C 325.39801 165.91501 324.4153 165.5045 323.5946 164.68385 C 322.77393 163.86316 322.36372 162.87172 322.36372 161.7075 C 322.36372 160.54402 322.76906 159.55157 323.58 158.73088 C 324.39171 157.91022 325.3793 157.5 326.5425 157.5 Z M 327.80211 190.47259 C 324.91945 195.49132 321.85778 198 318.61462 198 C 317.37452 198 316.38691 197.65158 315.65186 196.9555 C 314.9176 196.25866 314.54943 195.37617 314.54943 194.30782 C 314.54943 193.60202 314.71223 192.70572 315.03629 191.61813 L 319.0151 177.93651 C 319.39685 176.61922 319.58735 175.62754 319.58735 174.95991 C 319.58735 174.53996 319.40582 174.16692 319.04356 173.84286 C 318.68052 173.51905 318.18469 173.35701 317.55527 173.35701 C 317.26861 173.35701 316.92506 173.36677 316.5246 173.38548 L 316.89661 172.2407 L 326.59967 170.66627 L 328.31744 170.66627 L 322.44986 191.01638 C 322.12503 192.18064 321.963 192.94337 321.963 193.30666 C 321.963 193.51588 322.04862 193.71121 322.2204 193.89273 C 322.39218 194.07425 322.5737 194.16554 322.7642 194.16477 C 323.08903 194.16554 323.4131 194.02221 323.73792 193.73559 C 324.59605 193.02976 325.6267 191.75142 326.82838 189.90008 Z" fill="#ccc"/></g></g></svg>
