<?xml version="1.0"?>
<!DOCTYPE svg PUBLIC "-//W3C//DTD SVG 1.1//EN" "http://www.w3.org/Graphics/SVG/1.1/DTD/svg11.dtd">
<svg xmlns="http://www.w3.org/2000/svg" xmlns:xl="http://www.w3.org/1999/xlink" version="1.1" viewBox="83 81 50 50" width="22pt" height="22pt"><g stroke="none" stroke-opacity="1" stroke-dasharray="none" fill="none" fill-opacity="1"><g><path d="M 101.25 112.5 L 101.25 127.5 C 101.25 127.5 101.25 127.5 101.25 127.5 L 101.25 127.5 C 101.25 129.156855 102.593146 130.5 104.25 130.5 L 111.75 130.5 C 113.406854 130.5 114.75 129.156854 114.75 127.5 L 114.75 112.5 L 129.75 112.5 C 131.406854 112.5 132.75 111.156854 132.75 109.5 L 132.75 102 C 132.75 100.343146 131.406854 99 129.75 99 L 114.75 99 L 114.75 84 C 114.75 82.343146 113.406854 81 111.75 81 L 104.25 81 C 104.25 81 104.25 81 104.25 81 C 102.593146 81 101.25 82.343146 101.25 84 L 101.25 99 L 86.25 99 C 86.25 99 86.25 99 86.25 99 C 84.593146 99 83.25 100.343146 83.25 102 L 83.25 109.5 C 83.25 109.5 83.25 109.5 83.25 109.5 L 83.25 109.5 C 83.25 111.156855 84.593146 112.5 86.25 112.5 Z" fill="#fff"/></g></g></svg>
