<svg xmlns="http://www.w3.org/2000/svg" viewBox="1.1" height="20" width="20">
	<g fill="#333">
		<path d="M11.013 15.52H8.985v-1.557h2.028zM11.136 4.478l-.284 7.99H9.167l-.304-7.99z" />
		<path
			d="M9.72.005C4.66.15.411 4.119.027 9.275c-.41 5.498 3.73 10.298 9.227 10.698 5.5.4 10.307-3.748 10.717-9.247.41-5.499-3.732-10.3-9.232-10.7A10.115 10.115 0 009.72.005zm.037 1.454a8.66 8.66 0 01.875.02 8.514 8.514 0 017.888 9.14 8.554 8.554 0 01-9.157 7.903 8.513 8.513 0 01-7.883-9.14A8.552 8.552 0 019.757 1.46z" />
	</g>
</svg>