<svg xmlns="http://www.w3.org/2000/svg" viewBox="1.1" height="20" width="22">
	<path
		d="M11.218 0c-.814-.02-1.652.416-2.133 1.254L.34 16.346H.339c-.443.78-.442 1.688-.054 2.404.388.715 1.185 1.224 2.152 1.22l17.442.027h.002c.898 0 1.685-.46 2.11-1.155.425-.694.466-1.637-.018-2.471l-8.7-15.12C12.82.474 12.031.021 11.218 0z" />
	<path
		d="M11.187 1.196c.395.01.8.224 1.053.657l8.697 15.118c.288.494.24.91.034 1.248-.206.337-.594.581-1.095.584l-17.442-.027h-.001c-.572 0-.909-.247-1.097-.595-.188-.347-.205-.806.042-1.242l8.744-15.09c.285-.495.67-.663 1.065-.652z"
		fill="#ff0" />
	<path d="M10.233 14.85h1.857v1.672h-1.857zM10.233 6.99h1.857v6.127h-1.857z" /></svg>